<?xml version="1.0" standalone="no"?> 
<!DOCTYPE svg PUBLIC "-//W3C//DTD SVG 1.1//EN" "http://www.w3.org/Graphics/SVG/1.1/DTD/svg11.dtd" >
<svg xmlns="http://www.w3.org/2000/svg">
<defs>
  <font id="iconfont" horiz-adv-x="37">
    <font-face font-family="iconfont"
      units-per-em="1001" ascent="1001"
      descent="0" />
    <missing-glyph horiz-adv-x="0" />
    <glyph glyph-name="alarm"
      unicode="&#xE600;"
      horiz-adv-x="1001" d="M-0.0156406249999 500.5C-0.0156406249999 776.49446875 224.4898906250001 1001 500.4843593750001 1001C601.522796875 1001 698.9013281250002 971.0325625 782.0781718750002 914.31965625C795.4978281250001 905.15425 798.9700468750002 886.85471875 789.8046406250003 873.4037812500001S762.3709843750003 856.480625 748.8887656250001 865.6773125C675.5342343750003 915.69603125 589.6359218750001 942.09740625 500.4843593750002 942.09740625C256.9911093750003 942.09740625 58.8556718750002 743.99325 58.8556718750002 500.4687187499999S256.9598281250003 58.84003125 500.4843593750002 58.84003125C743.9776093750002 58.84003125 942.113046875 256.9441875 942.113046875 500.4687187500001C942.113046875 552.64584375 933.1040468750002 603.7281250000001 915.3675781250003 652.2453437500001C909.768234375 667.51059375 917.6198281250003 684.4337500000001 932.885078125 690.03309375C948.0877656250002 695.60115625 965.0734843750002 687.78084375 970.672828125 672.5155937500001C990.8179531249998 617.491875 1001.0156406249998 559.6215625000001 1001.0156406249998 500.5000000000001C1001.0156406249998 224.5055312500001 776.510109375 1e-13 500.515640625 1e-13S0.015640625 224.5055312500001 0.015640625 500.5000000000001zM868.821078125 762.29278125C861.063328125 762.8245625 853.493265625 766.4531875 848.144171875 772.9596875C839.1038906250001 783.93940625 829.437984375 794.6063125000001 819.3967031249999 804.6475937499999C807.8852031250001 816.15909375 807.8852031250001 834.8027187499999 819.3967031249999 846.2829375S849.5518281249999 857.7944375 861.0320468750001 846.2829375C872.387140625 834.8965625000001 883.335578125 822.822 893.595828125 810.3720625000001C903.9186406249999 797.82828125 902.1356093749998 779.24721875 889.560546875 768.92440625C883.523265625 763.9506875 876.047046875 761.7922812500001 868.821078125 762.29278125zM529.9200156250001 397.4595625C529.9200156250001 382.72609375 515.186546875 368.02390625 500.484359375 368.02390625S471.048703125 382.757375 471.048703125 397.4595625L456.315234375 736.0478125C456.315234375 760.4471874999999 476.084984375 780.2169375 500.484359375 780.2169375S544.6534843750001 760.4471874999999 544.6534843750001 736.0478125L529.9200156249999 397.4595625zM456.3152343750001 279.68565625C456.3152343750001 304.0850312500001 476.0849843750001 323.85478125 500.4843593750001 323.85478125S544.6534843750001 304.08503125 544.6534843750001 279.68565625C544.6534843750001 255.2862812499999 524.8837343750001 235.51653125 500.4843593750001 235.51653125S456.3152343750001 255.28628125 456.3152343750001 279.68565625z" />
    <glyph glyph-name="alarm2"
      unicode="&#xE601;"
      horiz-adv-x="1001" d="M500.5 889.763875C715.089375 889.763875 889.7638750000001 715.1519375 889.7638750000001 500.5S715.0893750000001 111.2361249999999 500.5 111.2361249999999C285.9106250000001 111.2361249999999 111.236125 285.8480625000001 111.236125 500.5S285.910625 889.763875 500.5 889.763875zM500.5 1001C224.098875 1001 0 776.93240625 0 500.5S224.098875 0 500.5 0C776.901125 0 1001 224.06759375 1001 500.5S776.901125 1001 500.5 1001zM556.1180625 444.8819375000001C556.1180625 414.19503125 531.2494687499999 389.2638750000001 500.4999999999999 389.2638750000001S444.8819375 414.1637500000001 444.8819375 444.8819375000001V722.94096875C444.8819375 753.627875 469.7505312499999 778.5590312500001 500.4999999999999 778.5590312500001S556.1180625 753.65915625 556.1180625 722.94096875V444.8819375000001zM556.1180625 278.05903125C556.1180625 247.372125 531.2494687499999 222.44096875 500.4999999999999 222.44096875S444.8819375 247.34084375 444.8819375 278.05903125C444.8819375 308.7459375000001 469.7505312499999 333.67709375 500.4999999999999 333.67709375S556.1180625 308.77721875 556.1180625 278.05903125z" />
    <glyph glyph-name="alarm3"
      unicode="&#xE602;"
      horiz-adv-x="1001" d="M500.5 910.00284375C726.31934375 910.00284375 910.00284375 726.2880625 910.00284375 500.5S726.31934375 90.99715625 500.5 90.99715625C274.6806562500001 90.99715625 90.99715625 274.7119375 90.99715625 500.5S274.6806562500001 910.00284375 500.5 910.00284375zM500.5 1001C224.098875 1001 0 776.901125 0 500.5S224.098875 0 500.5 0C776.901125 0 1001 224.098875 1001 500.5S776.901125 1001 500.5 1001zM546.0142187499999 409.50284375C546.0142187499999 384.384 525.68140625 363.9886250000002 500.4999999999999 363.9886250000002S454.9857812499999 384.3840000000002 454.9857812499999 409.50284375V728.00853125C454.9857812499999 753.127375 475.3185937499999 773.5227500000001 500.4999999999999 773.5227500000001S546.0142187499999 753.127375 546.0142187499999 728.00853125V409.50284375zM546.0142187499999 272.99146875C546.0142187499999 247.872625 525.68140625 227.4772499999999 500.4999999999999 227.4772499999999S454.9857812499999 247.872625 454.9857812499999 272.9914687499999C454.9857812499999 298.1103125 475.3185937499999 318.5056874999998 500.4999999999999 318.5056874999998S546.0142187499999 298.1103124999999 546.0142187499999 272.9914687499999z" />
    <glyph glyph-name="alarm4"
      unicode="&#xE603;"
      horiz-adv-x="1001" d="M500.5625625 1001C224.224 1001 0 786.56703125 0 506.72496875S224.224 0 500.5625625 0C776.901125 0 1001 226.88290625 1001 506.7249687500001S776.93240625 1001 500.5625625000001 1001V1001zM500.5 214.49553125C460.9605 214.49553125 428.9910625 246.5275312500001 428.9910625 286.00446875S460.9605 357.5134062500001 500.5 357.5134062500001C540.0395 357.5134062500001 572.0089375 325.4814062500001 572.0089375 286.00446875S540.0395000000001 214.49553125 500.5 214.49553125V214.49553125zM572.0089375 500.5C572.0089375 461.0230625 540.0395000000001 428.9910625 500.5 428.9910625S428.9910625 461.0230625 428.9910625 500.5V714.99553125C428.9910625 754.47246875 460.9605 786.50446875 500.5 786.50446875S572.0089375 754.47246875 572.0089375 714.99553125V500.5z" />
    <glyph glyph-name="alarm5"
      unicode="&#xE604;"
      horiz-adv-x="1001" d="M572.0089375 500.5C572.0089375 461.0230625 540.0395000000001 428.9910625 500.5 428.9910625S428.9910625 461.0230625 428.9910625 500.5V714.99553125C428.9910625 754.47246875 460.9605 786.50446875 500.5 786.50446875S572.0089375 754.47246875 572.0089375 714.99553125V500.5zM572.0089375 286.00446875C572.0089375 246.5275312500001 540.0395000000001 214.49553125 500.5 214.49553125S428.9910625 246.5275312500001 428.9910625 286.00446875C428.9910625 325.4814062500001 460.9605 357.5134062500001 500.5 357.5134062500001S572.0089375 325.4814062500001 572.0089375 286.00446875z" />
    <glyph glyph-name="alarm-clock"
      unicode="&#xE605;"
      horiz-adv-x="1001" d="M500.4999999999999 51.45765625C265.85934375 51.45765625 75.075 242.3045625 75.075 476.88265625S265.8593437500001 902.30765625 500.4999999999999 902.30765625C735.1406562500001 902.30765625 925.925 711.46075 925.925 476.88265625S735.14065625 51.4576562499999 500.4999999999998 51.4576562499999V51.4576562499999zM500.4999999999999 852.25765625C293.4806875 852.25765625 125.125 683.9019687499999 125.125 476.8826562500001S293.4806875 101.5076562500001 500.4999999999999 101.5076562500001C707.5193125 101.5076562500001 875.875 269.8633437500002 875.875 476.8826562500001S707.5193125 852.2576562500001 500.4999999999999 852.2576562500001V852.2576562500001zM125.125 602.00765625L76.32625 653.5591562499999C43.2306875 686.65471875 25.025 730.63615625 25.025 777.43290625S43.2306875 868.2110937499999 76.32625 901.30665625C142.4548125 967.4665 257.85134375 967.5290625 324.0111875 901.30665625L375.3124375 852.25765625H325.2624375L288.6320937500001 865.9275625C241.3348437500001 913.2248125 158.90875 913.16225 111.70534375 865.9275625C88.0254375000001 842.31021875 75.075 810.8725625 75.075 777.43290625S88.088 712.5555937500001 111.70534375 688.9382499999999L125.1250000000001 652.05765625V602.00765625zM875.875 602.00765625V652.05765625L889.29465625 688.90696875C912.9745625 712.5243125 925.925 743.96196875 925.925 777.401625C925.925 810.77871875 912.9119999999998 842.216375 889.29465625 865.89628125C842.0599687499999 913.19353125 759.5713125000001 913.13096875 712.36790625 865.89628125L675.7375625000001 852.2889375H624.6865625L676.9888125 901.275375C743.14865625 967.43521875 858.60775 967.43521875 924.67375 901.275375C957.7693125 868.1798125 975.975 824.198375 975.975 777.401625S957.7693125 686.6234375 924.67375 653.527875L875.875 602.0389375000001zM463.86965625 251.6576562500001L428.27159375 288.8510625L561.96765625 418.1364687500001L350.35 521.4897187500001L525.5250000000001 702.10765625L575.5750000000002 652.05765625L439.0323437500001 535.5975625L650.6500000000001 432.306875L463.86965625 251.6889375zM823.8855625000001 55.89959375C817.4729062500002 55.89959375 811.0602500000001 58.3395312499999 806.1803750000001 63.21940625L722.4091875 146.99059375C712.6494375000001 156.7503437500001 712.6494375000001 172.6099375 722.4091875 182.3696875000001S748.02853125 192.1294375000001 757.7882812500001 182.3696875000001L841.5594687500001 98.5985000000001C851.3192187500001 88.83875 851.3192187500001 72.9791562500001 841.5594687500001 63.21940625C836.7108750000001 58.30825 830.2982187500002 55.89959375 823.8855625000001 55.89959375zM154.4668125 50.0500000000001C148.05415625 50.0500000000001 141.6415 52.4899375 136.761625 57.3698125000001C127.001875 67.1295625000001 127.001875 82.9891562500001 136.761625 92.7489062500001L226.4136875 182.4009687500001C236.1734375 192.1607187500001 252.03303125 192.1607187500001 261.79278125 182.4009687500001S271.55253125 156.7816250000001 261.79278125 147.0218750000001L172.14071875 57.3698125000001C167.292125 52.5212187500001 160.87946875 50.0500000000001 154.4668125 50.0500000000001z" />
    <glyph glyph-name="arrow-down2"
      unicode="&#xE606;"
      horiz-adv-x="1001" d="M179.038234375 583.8332499999999C179.038234375 605.2609062500001 187.202640625 626.626 203.468890625 642.79840625C236.095234375 675.4873124999999 288.804140625 675.4873124999999 321.430484375 642.79840625L512.7153281249999 451.6074062499999L704.000171875 642.79840625C736.6265156249999 675.4873124999999 789.3354218750001 675.4873124999999 821.961765625 642.79840625C854.588109375 610.1720624999999 854.588109375 557.557 821.961765625 524.93065625L571.711765625 274.6806562500001C539.0854218750001 242.0543125000001 486.376515625 242.0543125000001 453.7501718750001 274.6806562500001L203.5001718750001 524.93065625C187.2339218750001 541.1030625 179.0695156250001 562.46815625 179.0695156250001 583.8332499999999z" />
    <glyph glyph-name="arrow-down3"
      unicode="&#xE607;"
      horiz-adv-x="1001" d="M956.0957656249998 801.58203125C912.7086718749998 845.06296875 842.3258593749997 845.06296875 798.8136406249998 801.58203125L484.155546875 487.0490625L169.622578125 801.58203125C126.141640625 845.06296875 55.727546875 845.06296875 12.340453125 801.58203125C-31.140484375 758.10109375 -31.140484375 687.8121249999999 12.340453125 644.29990625L405.514484375 251.125875C448.995421875 207.6449375 519.4095156249999 207.6449375 562.7966093749999 251.125875L956.0644843749998 644.29990625C977.8675156249998 665.9778125 988.659546875 694.47503125 988.659546875 722.9409687499999S977.8675156249998 779.87284375 956.0644843749998 801.58203125z" />
    <glyph glyph-name="arrow-down4"
      unicode="&#xE608;"
      horiz-adv-x="1001" d="M500.5 480.32359375L146.6465 834.17709375L28.68490625 716.2155L500.5 244.4004062500001L972.31509375 716.2155L854.3534999999999 834.17709375L500.5 480.3235937500001z" />
    <glyph glyph-name="arrow-left"
      unicode="&#xE609;"
      horiz-adv-x="1001" d="M737.533671875 -1.5640624999999C727.6800781249999 -1.5640624999999 717.8264843750001 2.22096875 710.350265625 9.7284687500002L247.5128906250001 472.5032812500001C240.286921875 479.7292500000002 236.2203593750001 489.5202812500002 236.2203593750001 499.7179687500002S240.2556406250001 519.7379687500002 247.5128906250001 526.9326562500002L710.350265625 989.73875C725.3652656249999 1004.78503125 749.7020781249998 1004.78503125 764.779640625 989.73875C779.7946406249998 974.6924687500002 779.7946406249998 950.3556562500002 764.779640625 935.3093750000002L329.1882343749999 499.7179687500001L764.779640625 64.1578437500001C779.7946406249998 49.1115625 779.7946406249998 24.77475 764.779640625 9.7284687500002C757.2095781249998 2.2209687500001 747.3247031249998 -1.5640624999999 737.533671875 -1.5640624999999z" />
    <glyph glyph-name="arrow-left2"
      unicode="&#xE60A;"
      horiz-adv-x="1001" d="M625.6406406250001 166.82290625C647.005734375 166.82290625 668.339546875 174.9873124999999 684.6057968750001 191.2535624999999C717.232140625 223.8799062499999 717.232140625 276.5888125 684.6057968750001 309.21515625L493.320953125 500.5L684.6057968750001 691.7848437499999C717.232140625 724.4111875 717.232140625 777.12009375 684.6057968750001 809.7464375S599.270546875 842.37278125 566.6442031250001 809.7464375L316.394203125 559.4964375C283.767859375 526.87009375 283.767859375 474.1611875 316.394203125 441.53484375L566.6442031250001 191.2848437499999C582.910453125 175.0185937499999 604.2755468749999 166.8541875 625.6093593749999 166.8541875z" />
    <glyph glyph-name="arrow-left3"
      unicode="&#xE60B;"
      horiz-adv-x="1001" d="M697.087015625 0C725.5529531249999 0 754.018890625 10.8858749999999 775.7280781249999 32.5950625C819.2090156249999 75.9821562500001 819.2090156249999 146.3649687500001 775.7280781249999 189.8771875L461.195109375 504.53528125L775.7280781249999 819.06825C819.2090156249999 862.5491875 819.2090156249999 932.96328125 775.7280781249999 976.350375C732.3409843749998 1019.8313125 661.9581718749998 1019.8313125 618.445953125 976.350375L225.2719218750001 583.1763437499999C181.790984375 539.6954062499999 181.790984375 469.2813124999999 225.2719218750001 425.89421875L618.445953125 32.6263437499999C640.1238593749999 10.9484375 668.6210781249999 0.0312812499999 697.087015625 0.0312812499999z" />
    <glyph glyph-name="arrow-left4"
      unicode="&#xE60C;"
      horiz-adv-x="1001" d="M677.42675 943.59890625L205.61165625 471.7838125000001L677.42675 -0.0312812499999L795.38834375 117.9303125000001L441.53484375 471.7838125000001L795.38834375 825.6373125L677.42675 943.59890625z" />
    <glyph glyph-name="arrow-right"
      unicode="&#xE60D;"
      horiz-adv-x="1001" d="M263.4350468750001 -1.5640624999999C253.5814531250001 -1.5640624999999 243.7278593750001 2.22096875 236.2516406250001 9.7284687500002C221.1740781250001 24.7747500000002 221.1740781250001 49.1115625000001 236.2516406250001 64.1578437500001L671.7492031250001 499.7179687500001L236.2516406250001 935.309375C221.1740781250001 950.35565625 221.1740781250001 974.6924687500002 236.2516406250001 989.73875C251.2666406250002 1004.78503125 275.6034531250001 1004.78503125 290.6184531250001 989.73875L753.4558281249999 526.93265625C760.650515625 519.7066875 764.7483593750001 509.91565625 764.7483593750001 499.7179687500001S760.7443593750002 479.69796875 753.4558281249999 472.50328125L290.6184531250001 9.72846875C283.1422343750001 2.22096875 273.2886406250001 -1.5640624999999 263.4350468750001 -1.5640624999999z" />
    <glyph glyph-name="arrow-right2"
      unicode="&#xE60E;"
      horiz-adv-x="1001" d="M375.359359375 166.82290625C353.994265625 166.82290625 332.660453125 174.9873124999999 316.394203125 191.2535624999999C283.767859375 223.8799062499999 283.767859375 276.5888125 316.394203125 309.21515625L507.679046875 500.5L316.3942031250001 691.7848437499999C283.7678593750001 724.4111875 283.7678593750001 777.12009375 316.3942031250001 809.7464375S401.7294531250001 842.37278125 434.355796875 809.7464375L684.6057968749999 559.4964375C717.232140625 526.87009375 717.232140625 474.1611875 684.6057968749999 441.53484375L434.355796875 191.2848437499999C418.089546875 175.0185937499999 396.7244531250001 166.8541875 375.390640625 166.8541875z" />
    <glyph glyph-name="arrow-right3"
      unicode="&#xE60F;"
      horiz-adv-x="1001" d="M303.912984375 -7.8828750000001C275.447046875 -7.8828750000001 246.981109375 2.9091562499999 225.271921875 24.7121875C181.790984375 68.09928125 181.790984375 138.48209375 225.271921875 181.9943125L539.804890625 496.5272812499999L225.271921875 811.1853749999999C181.790984375 854.6663124999999 181.790984375 925.0804062499998 225.271921875 968.4674999999997C268.752859375 1011.9484374999998 339.041828125 1011.9484374999998 382.554046875 968.4674999999997L775.728078125 575.199625C819.209015625 531.8125312499999 819.209015625 461.4297187499999 775.728078125 417.9175L382.554046875 24.7434687499999C360.8761406250001 2.9404374999999 332.378921875 -7.8515937500001 303.9129843750001 -7.8515937500001z" />
    <glyph glyph-name="arrow-right4"
      unicode="&#xE610;"
      horiz-adv-x="1001" d="M323.5732500000001 943.59890625L205.61165625 825.6373125L559.4651562500001 471.7838125000001L205.6116562500001 117.9303125000001L323.5732500000001 -0.0312812499999L795.3883437500001 471.7838125000001L323.5732500000001 943.59890625z" />
    <glyph glyph-name="arrow-up"
      unicode="&#xE611;"
      horiz-adv-x="1001" d="M950.9500000000002 250.28128125C938.1246875000002 250.28128125 925.33065625 255.1924375 915.5709062499998 264.9521875000001L500.4999999999999 679.96053125L85.42909375 264.8896250000002C65.84703125 245.3075625 34.2216875 245.3075625 14.67090625 264.8896250000002S-4.91115625 316.0970312500001 14.67090625 335.6478125000001L465.1209062500001 786.0978125000001C484.70296875 805.6798750000002 516.3283125 805.6798750000002 535.87909375 786.0978125000001L986.32909375 335.6478125000001C1005.9111562499997 316.0657500000001 1005.9111562499997 284.4404062500002 986.32909375 264.8896250000002C976.5693437500001 255.1924375000001 963.7440312500001 250.2812812500001 950.9500000000002 250.2812812500001z" />
    <glyph glyph-name="arrow-up2"
      unicode="&#xE612;"
      horiz-adv-x="1001" d="M179.038234375 333.7396562500001C179.038234375 312.312 187.202640625 290.9469062500001 203.468890625 274.7745C236.095234375 242.08559375 288.804140625 242.08559375 321.430484375 274.7745L512.7153281249999 465.9655L704.000171875 274.7745C736.6265156249999 242.08559375 789.3354218750001 242.08559375 821.961765625 274.7745C854.588109375 307.4008437499999 854.588109375 360.0159062500001 821.961765625 392.64225L571.711765625 642.89225C539.0854218750001 675.51859375 486.376515625 675.51859375 453.7501718750001 642.89225L203.5001718750001 392.64225C187.2339218750001 376.46984375 179.0695156250001 355.10475 179.0695156250001 333.7396562500001z" />
    <glyph glyph-name="arrow-up3"
      unicode="&#xE613;"
      horiz-adv-x="1001" d="M12.3248125000001 329.7669375000001C12.3248125000001 301.3010000000001 23.2106875000001 272.8350625000001 44.9198750000001 251.1258750000001C88.4008125000001 207.6449375000001 158.6897812500001 207.6449375000001 202.2020000000001 251.1258750000001L516.86009375 565.6588437500001L831.3930625 251.1258750000001C874.874 207.6449375000001 945.3819375 207.6449375000001 988.6751874999998 251.1258750000001C1032.156125 294.5129687500002 1032.156125 364.8957812500002 988.6751874999998 408.408L595.5011562499999 801.58203125C552.0202187499999 845.06296875 481.7312499999999 845.06296875 438.21903125 801.58203125L44.95115625 408.408C23.27325 386.7300937500001 12.35609375 358.2328750000001 12.35609375 329.7669375000001z" />
    <glyph glyph-name="arrow-up4"
      unicode="&#xE614;"
      horiz-adv-x="1001" d="M618.46159375 638.638L500.4999999999999 756.5995937499999L28.6849062499999 284.7845L146.6464999999999 166.82290625L500.4999999999999 520.6764062499999L854.3535 166.82290625L972.31509375 284.7845L618.4615937500001 638.6379999999999z" />
    <glyph glyph-name="baby"
      unicode="&#xE615;"
      horiz-adv-x="1001" d="M300.1905156250002 500.4374375C327.8118593750003 500.4374375 350.2405156250002 478.0087812500001 350.2405156250002 450.3874375S327.8118593750002 400.3374375 300.1905156250002 400.3374375C272.5066093750003 400.3374375 250.1405156250003 422.7660937499999 250.1405156250003 450.3874375S272.5066093750003 500.4374375 300.1905156250002 500.4374375zM700.5905156250002 500.4374375C728.2118593750001 500.4374375 750.6405156250001 478.0087812500001 750.6405156250001 450.3874375S728.2118593750002 400.3374375 700.5905156250002 400.3374375C672.9066093750001 400.3374375 650.5405156250001 422.7660937499999 650.5405156250001 450.3874375S672.9066093750001 500.4374375 700.5905156250002 500.4374375zM505.0514218750002 650.5874375000001L500.6407656250001 650.6500000000001C458.1608281250001 651.90125 419.1218281250002 669.2623437500001 390.5933281250002 699.6364375C363.3786406250002 728.602875 349.0518281250002 766.10909375 350.3030781250002 805.3045000000001C352.9932656250002 887.9808437500001 424.5334843750002 952.8894375 510.1502656250001 950.8874375C523.9140156250002 950.48078125 534.8311718750002 938.96928125 534.4245156250001 925.17425C534.0178593750001 911.5981875 522.9755781250001 900.8374375 509.399515625 900.8374375L505.5519218750001 900.9C448.9328593750001 900.9 402.1048281250001 857.9195625 400.2592343750001 803.70915625C399.4146406250002 777.9334062500001 408.8615781250002 753.15865625 426.9421406250001 733.9519687500001C446.3052343750001 713.36890625 472.9255781250001 701.575875 501.9545781250002 700.73128125C543.0894218750002 698.97953125 585.8821718750002 724.3486250000001 602.4612343750001 762.60559375C607.9667343750001 775.30578125 622.8253281250002 781.12409375 635.4003906250001 775.55603125C648.0692968750002 770.0505312500001 653.8250468750001 755.34834375 648.4133906250001 742.616875C624.4519531250002 687.1552187500001 567.1447031250002 650.6187187500001 505.0827031250001 650.6187187500001zM640.6556406250002 161.31740625L645.4729531250001 163.13171875C659.7372031250002 169.043875 669.4969531250001 173.8299062499999 679.2567031250002 178.9600312500001L685.7006406250002 182.52609375C756.9280468750002 221.9717500000001 812.6399531250001 280.5615312500001 846.9242031250002 352.1017500000001C850.8656406250002 360.26615625 858.8736406250002 365.6778125000001 867.9452031250001 366.27215625C914.5855468750002 369.1813125 950.9656406250002 407.75109375 950.9656406250002 454.04734375C950.9656406250002 489.14490625 930.1010468750002 520.92665625 897.8187968750001 535.0345C889.4979843750001 538.63184375 883.8673593750001 546.4834375 882.8663593750001 555.4924375C863.5032656250002 752.376625 699.5269531250001 900.8374375 501.4227968750002 900.8374375C301.3166406250002 900.8374375 137.4028906250002 752.34534375 118.0397968750002 555.4924375C117.0387968750002 546.4834375 111.3768906250001 538.63184375 103.0873593750002 535.0345C70.8051093750001 520.92665625 49.9717968750002 489.14490625 49.9717968750002 454.04734375C49.9717968750002 407.68853125 86.4457343750001 369.11875 132.9609531250002 366.27215625C142.0325156250002 365.70909375 150.0405156250002 360.3287187499999 153.9819531250002 352.1017500000001C188.3287656250002 280.5928124999999 244.0093906250002 221.9717500000001 315.0491093750002 182.58865625L321.7120156250002 178.9287499999999C331.3779218750001 173.8299062499999 341.2315156250002 168.9813125 351.2415156250002 164.6645L360.1879531250001 161.3486875L341.8571406250001 114.7396249999999L332.0348281250001 118.4308124999999C320.3669218750001 123.4358124999999 309.2620781250001 128.8474687499999 298.3449218750001 134.6345L290.7435781250001 138.79490625C214.8239843750001 180.89946875 154.3573281250001 242.64865625 115.1619218750001 317.9113437499999C49.5025781250001 329.1100312499999 -0.0156406249999 386.22959375 -0.0156406249999 453.9534999999998C-0.0156406249999 503.9409374999999 26.9487968750001 549.6428437499999 69.741546875 574.0735C97.9259531250001 789.8515624999999 280.1392343750001 950.7935937499998 499.420796875 950.7935937499998C720.7982031250001 950.7935937499998 903.074046875 789.8202812499999 931.102046875 574.0735C973.988640625 549.6115624999999 1001.015640625 503.9409374999998 1001.015640625 453.9534999999998C1001.015640625 386.22959375 951.528703125 329.0787499999999 885.806796875 317.9113437499999C846.673953125 242.64865625 786.144734375 180.8681874999999 709.974890625 138.6697812499999L702.6550781249999 134.6032187499999C691.6440781249999 128.78490625 680.6330781249999 123.27940625 669.1841406249999 118.4933749999999L662.5212343749998 115.9283124999998zM500.3905156250001 -0.0625625000001C417.6203281250002 -0.0625625000001 350.2405156250002 67.31725 350.2405156250002 150.0874375S417.6203281250002 300.2374375 500.3905156250001 300.2374375C583.1607031250002 300.2374375 650.5405156250002 232.857625 650.5405156250002 150.0874375S583.1607031250002 -0.0625625000001 500.3905156250001 -0.0625625000001V-0.0625625000001zM500.3905156250001 250.1874375C445.2416718750002 250.1874375 400.2905156250002 205.2988437500001 400.2905156250002 150.0874375000001S445.2416718750001 49.9874375000001 500.390515625 49.9874375000001C555.6019218750001 49.9874375000001 600.4905156250001 94.87603125 600.4905156250001 150.0874375000001S555.6019218750001 250.1874375 500.390515625 250.1874375V250.1874375z" />
    <glyph glyph-name="baidu"
      unicode="&#xE616;"
      horiz-adv-x="1001" d="M217.93646875 457.30059375C313.71965625 477.9775000000001 300.6753750000001 592.9986562500001 297.76621875 618.242625C293.04275 657.0939375 247.7162187500001 724.849125 186.15471875 719.46875C108.63978125 712.4617499999999 97.31596875 599.974375 97.31596875 599.974375C86.86803125 547.7972500000001 122.4035312500001 436.65496875 217.93646875 457.3318750000001V457.3318750000001zM319.60053125 257.22571875C316.7539375000001 249.0925937499999 310.5602500000001 228.4156875 315.9093437500001 210.36640625C326.60753125 169.9823124999999 361.51740625 168.1679999999999 361.51740625 168.1679999999999H411.6925312500001V291.416125H358.0139062500001C333.8960625000001 284.12759375 322.2594375000001 265.265 319.60053125 257.22571875V257.22571875zM395.6765312500001 650.274625C448.60440625 650.274625 491.3033125 711.5233125 491.3033125 787.25521875C491.3033125 862.83071875 448.60440625 924.048125 395.6765312500001 924.048125C342.8737812500001 924.048125 299.9871875000001 862.83071875 299.9871875000001 787.25521875C299.9871875000001 711.3981875 342.8737812500002 650.274625 395.6765312500002 650.274625V650.274625zM623.46659375 641.2030625C694.1622187500001 631.97509375 739.613875 707.832125 748.6541562499999 765.3583437499999C757.85084375 822.72815625 712.2427812499999 889.4510624999999 662.1927812499999 900.93128125C612.01765625 912.50534375 549.45515625 831.7058749999999 543.7619687499999 779.02825C536.9113749999999 714.62015625 552.8648125 650.3997499999999 623.4978749999999 641.2030625V641.2030625zM796.6708750000001 303.303C796.6708750000001 303.303 687.28034375 388.4192812500001 623.4665937500001 480.3548750000001C536.8800937500001 615.9278125000001 413.9447812500001 560.81025 372.8099375000001 491.866375C331.8627812500002 422.9225 268.0803125000001 379.28515625 259.0087500000002 367.7423750000001C249.8120625000002 356.2934375 126.8767500000001 289.6643750000001 154.1540000000002 167.76134375C181.4625312500001 46.01471875 277.3082812500001 48.2669687499999 277.3082812500001 48.2669687499999S347.9726250000001 41.25996875 429.8356562500001 59.7784687499999C511.85509375 78.1092812499999 582.3943125000001 55.2114062499999 582.3943125000001 55.2114062499999S773.8668437500002 -9.2279687500001 826.2316562500001 114.89603125C878.5651875000001 238.95746875 796.6708750000001 303.3029999999999 796.6708750000001 303.3029999999999V303.3029999999999zM469.093625 118.6185000000001H344.5942500000001C290.8217812500002 129.3479687500001 269.4254062500001 166.2911250000001 266.7352187500001 172.51609375C264.1075937500001 178.89746875 248.8110625000001 208.5520937500001 256.8503437500001 258.9461875C280.0923125000001 334.55296875 346.37728125 339.99590625 346.37728125 339.99590625H412.63096875V421.8902187499999L469.06234375 421.01434375V118.6497812499999zM700.9189687500001 119.4318125000001H557.682125C502.1891875 133.8837500000001 499.5615625 173.4858125000001 499.5615625 173.4858125000001V332.7699375000001L557.682125 333.6458125000001V190.53409375C561.2169062500001 175.3001250000001 580.0795 172.4848125000001 580.0795 172.4848125000001H639.0446562500001V332.7073750000002H700.9189687500002V119.4318125000002zM903.65275 544.6065625C903.65275 572.2591875 880.9425625 654.99809375 796.6708750000001 654.99809375C712.2115000000001 654.99809375 700.9502500000001 576.85753125 700.9502500000001 521.5835625C700.9502500000001 468.8120937499999 705.3609062500001 395.17603125 810.2469375000002 397.4908437500001C915.1955312500002 399.93078125 903.68403125 516.9852187500001 903.68403125 544.6065625V544.6065625z" />
    <glyph glyph-name="basketball"
      unicode="&#xE617;"
      horiz-adv-x="1001" d="M811.6545937500001 811.65459375C721.8148437500001 901.49434375 602.4455937500002 950.95 475.4750000000001 950.95C348.4418437500001 950.95 229.0413125000002 901.4630625 139.2328437500001 811.65459375C-46.1398437499999 626.21934375 -46.1398437499999 324.60553125 139.2328437500001 139.23284375C229.0100312500001 49.3930937500001 348.4418437500001 -0.0625625000001 475.4750000000001 -0.0625625000001C602.4455937500002 -0.0625625000001 721.8148437500001 49.4869375 811.6545937500001 139.2641249999999S950.95 348.4731249999999 950.95 475.4437187499999C950.95 602.4143125 901.49434375 721.7835625 811.6545937500001 811.6233124999999V811.6233124999999zM895.5196250000001 540.0395C811.3730625000001 535.8478124999999 723.4101875000001 564.5640000000001 653.0273750000001 617.617L793.0735312500002 757.66315625C848.0346875000002 695.94525 883.2573750000001 620.9328125 895.5196250000001 540.0395V540.0395zM520.1133437500001 898.4600625C608.6080000000001 889.29465625 690.9402500000001 852.57046875 757.6944375 793.04225L615.1457812500001 650.49359375C608.2013437500001 657.3441875 601.0379375000001 664.1009375 594.6252812500002 671.51459375C536.4108750000001 738.98825 510.6351250000001 818.34878125 520.1133437500001 898.42878125V898.42878125zM470.0946250000001 900.5871875C460.0846250000001 807.7444375 489.8643750000001 716.2155 556.6811250000001 638.7631250000001C563.8758125000002 630.4423125000001 571.7899687500001 622.7471250000001 579.6415625000002 614.9893750000001L475.4437187500001 510.79153125L193.1617187500002 793.0109687500001C269.8007812500003 861.2666562500001 366.8977812500002 899.2733750000001 470.0946250000002 900.5559062500001V900.5559062500001zM50.0500000000001 475.4124375C50.0500000000001 580.61128125 88.3382500000001 679.71028125 157.8139062500001 757.631875L440.0959062500001 475.349875L327.5772500000001 362.8937812500001C323.0727500000001 367.0854687500002 319.0061875 371.7463750000003 314.3765625000001 375.8129375000001C236.3924062500001 443.067625 144.05015625 472.9099375000001 50.70690625 462.3055937500001C50.5505000000001 466.7162500000001 50.05 471.00178125 50.05 475.4124375000001V475.4124375000001zM55.1488437500001 412.56840625C135.0411562500001 421.8902187499999 214.3078437500001 396.05190625 281.6250937500002 337.93134375C285.3788437500001 334.67809375 288.6320937500002 330.9243437500001 292.2294375000002 327.5772500000001L157.7826250000002 193.1304375C102.4148125000002 255.28628125 67.1295625000002 330.955625 55.1175625000002 412.537125V412.537125zM193.1930000000001 157.7513437499999L326.3885625000001 290.8843437500001C381.255875 223.6296562500001 413.2253125 138.138 413.6319687500001 54.9611562499999C331.6438125000001 66.81675 255.6616562500001 102.1645625 193.2242812500001 157.7513437499999V157.7513437499999zM475.4750000000001 49.9874374999999C471.4084375000001 49.9874374999999 467.4044375000001 50.4879374999999 463.3691562500001 50.58178125C464.0573437500001 147.99159375 426.6762500000001 248.46696875 361.8615000000001 326.3572812500001L475.4750000000001 439.9707812500001L757.6944375000002 157.7513437499999C679.7102812500002 88.3382499999999 580.6738437500002 49.9874374999999 475.4750000000003 49.9874374999999V49.9874374999999zM793.0735312500001 193.1304375L510.8540937499999 475.3498749999999L617.3041874999999 581.8625312499998C692.817125 523.1476249999998 787.53675 488.8633749999999 879.5661874999998 488.8633749999999C886.4793437500001 488.8633749999999 893.3299375 489.4577187499999 900.1805312499998 489.8643749999999C900.3369374999999 485.0157812499998 900.8687187499997 480.26103125 900.8687187499997 475.4124374999999C900.8687187499997 370.2135937499999 862.5179062499999 271.0520312499999 793.0735312499999 193.1304375V193.1304375z" />
    <glyph glyph-name="calendar"
      unicode="&#xE618;"
      horiz-adv-x="1001" d="M625.625 594.34375H750.75V469.21875H625.625V594.34375zM625.625 406.65625H750.75V281.53125H625.625V406.65625zM437.9375 594.34375H563.0625V469.21875H437.9375V594.34375zM437.9375 406.65625H563.0625V281.53125H437.9375V406.65625zM250.25 594.34375H375.375V469.21875H250.25V594.34375zM250.25 406.65625H375.375V281.53125H250.25V406.65625zM938.938 969.71875H875.875V782.03125H688.1875V969.71875H312.8125V782.03125H125.125V969.71875H62.062C27.77775 969.71875 0 941.69075 0 907.15625V93.84375C0 59.30925 27.77775 31.28125 62.062 31.28125H938.938C973.2848125 31.28125 1001 59.30925 1001 93.84375V907.15625C1001 941.69075 973.2848125 969.71875 938.938 969.71875V969.71875zM125.125 719.46875H875.875V156.40625H125.125V719.46875zM187.6875 969.71875H250.25V844.59375H187.6875V969.71875zM750.75 969.71875H813.3125V844.59375H750.75V969.71875z" />
    <glyph glyph-name="cart"
      unicode="&#xE619;"
      horiz-adv-x="1001" d="M263.9042656250001 356.1057500000001C265.4996093750002 356.1057500000001 267.0636718750002 356.356 268.5338906250001 356.731375C270.0041093750002 356.356 271.5056093750001 356.1057500000001 273.1009531250002 356.1057500000001H898.7259531250002C907.922640625 356.1057500000001 915.8367968750002 362.64353125 917.6198281250003 371.6838125000001L994.6342656250002 766.2967812500001C995.7291093750002 771.9274062500001 994.258890625 777.777 990.5989843750002 782.2189375S981.496140625 789.2259375000001 975.7403906250001 789.2259375000001H330.8774218750001C320.2417968750001 789.2259375000001 311.6394531250001 780.5923125 311.6394531250001 769.98796875S320.2730781250001 750.75 330.8774218750001 750.75H952.373296875L882.866359375 394.6129687500001H288.960546875L266.0313906249999 512.1053437500001C265.9688281249999 512.6684062500001 266.000109375 513.23146875 265.874984375 513.7945312500001L188.8605468749999 908.4075C187.0775156249999 917.44778125 179.163359375 923.9855625000002 169.9666718749999 923.9855625000002H25.6037031249999C14.9993593749999 923.9855625000002 6.3657343749999 915.3519375 6.3657343749999 904.74759375S14.9993593749999 885.5096250000001 25.6037031249999 885.5096250000001H154.1070781249999L177.0362343749999 768.0172500000001C177.0987968749999 767.4541875000001 177.0987968749999 766.8911250000001 177.1926406249999 766.3280625000001L249.9841093749999 393.3304375000002C211.3830468749999 386.6988125000002 181.8848281249999 353.0401875000001 181.8848281249999 312.5622500000002V293.7622187500002C181.8848281249999 248.5295312500001 218.6715781249999 211.7427812500001 263.9042656249999 211.7427812500001H287.7405781249999C278.5126093749999 197.9477500000002 273.100953125 181.4312500000001 273.100953125 163.6322187500001C273.100953125 115.8657500000002 311.952265625 77.0144375000001 359.718734375 77.0144375000001S446.336515625 115.8657500000002 446.336515625 163.6322187500001C446.336515625 181.43125 440.924859375 197.9790312500001 431.6968906249999 211.74278125H778.6059531249999C769.3779843749999 197.9477500000001 763.9663281249999 181.43125 763.9663281249999 163.6322187500001C763.9663281249999 115.8657500000001 802.817640625 77.0144375000001 850.5841093749999 77.0144375000001S937.201890625 115.8657500000002 937.201890625 163.6322187500001C937.201890625 211.3986875000001 898.3505781249997 250.25 850.5841093749999 250.25C846.1108906249998 250.25 841.7627968749998 249.8120625 837.4772656249999 249.15515625C835.5378281249998 249.8120625 833.5045468749998 250.25 831.3148593749999 250.25H263.8729843749999C239.8802656249999 250.25 220.3607656249999 269.7695 220.3607656249999 293.76221875V312.56225C220.3607656249999 336.55496875 239.8802656249999 356.10575 263.8729843749999 356.10575V356.10575zM407.8605781250002 163.6322187500001C407.8605781250002 137.0431562500001 386.3077968750001 115.5216562500001 359.7500156250001 115.5216562500001S311.6394531250001 137.0744375000001 311.6394531250001 163.6322187500001C311.6394531250001 190.2212812500001 333.1922343750001 211.74278125 359.7500156250001 211.74278125S407.8605781250002 190.1900000000001 407.8605781250002 163.6322187500001V163.6322187500001zM898.7259531250002 163.6322187500001C898.7259531250002 137.0431562500001 877.1731718750001 115.5216562500001 850.6153906250001 115.5216562500001S802.5048281250001 137.0744375000001 802.5048281250001 163.6322187500001C802.5048281250001 190.2212812500001 824.0576093750001 211.74278125 850.6153906250001 211.74278125S898.7259531250002 190.1900000000001 898.7259531250002 163.6322187500001V163.6322187500001z" />
    <glyph glyph-name="category"
      unicode="&#xE61A;"
      horiz-adv-x="1001" d="M0 834.17709375H1001V700.6999999999999H0V834.1770937499999zM0 567.22290625H1001V433.7458125H0V567.22290625zM0 300.3000000000002H1001V166.8229062500001H0V300.3000000000002z" />
    <glyph glyph-name="checkbox"
      unicode="&#xE61B;"
      horiz-adv-x="1001" d="M929.506703125 1001H71.493296875C31.953796875 1001 -0.015640625 968.968 -0.015640625 929.4910625V71.47765625C-0.015640625 32.00071875 31.953796875 -0.0312812499999 71.493296875 -0.0312812499999H929.506703125C969.046203125 -0.0312812499999 1001.015640625 32.0007187500001 1001.015640625 71.4776562500001V929.4910625000002C1001.015640625 968.968 969.046203125 1001.0000000000002 929.506703125 1001.0000000000002V1001.0000000000002zM836.914203125 628.6905624999999L467.8267343750001 271.8340625000001C467.5452031250001 271.6776562500001 467.5452031250001 271.3961250000001 467.3887968750001 271.1771562500001C439.3607968750001 243.2117187500001 394.0968281250001 243.2117187500001 366.2877968750001 271.1771562500001V271.23971875C366.1313906250001 271.23971875 366.1313906250001 271.23971875 366.1313906250001 271.30228125L365.9749843750001 271.3648437499999L163.9293906250001 473.4104374999999C135.9639531250001 501.2820312499999 135.9639531250001 546.4834374999999 164.0857968750001 574.5114374999998C191.8948281250001 602.4768749999998 237.0962343750001 602.3830312499999 265.0303906250001 574.5114374999998L416.681890625 422.8599374999999L735.9383281249999 729.6664374999999C763.9037656249999 757.6318749999999 809.073890625 757.7569999999998 836.882921875 729.7289999999999C864.9734843749999 701.7009999999999 864.9734843749999 656.5934374999999 836.882921875 628.6279999999999V628.6279999999999z" />
    <glyph glyph-name="circle"
      unicode="&#xE61C;"
      horiz-adv-x="1001" d="M500.5 1001C224.06759375 1001 0 776.93240625 0 500.5S224.06759375 0 500.5 0C776.93240625 0 1001 224.06759375 1001 500.5S776.93240625 1001 500.5 1001V1001zM500.5 71.5089375C263.60709375 71.5089375 71.5089375 263.638375 71.5089375 500.5000000000001S263.6383750000001 929.4910625000002 500.5 929.4910625000002C737.45546875 929.4910625000002 929.4910625 737.361625 929.4910625 500.5000000000001S737.45546875 71.5089375 500.4999999999999 71.5089375V71.5089375z" />
    <glyph glyph-name="clock"
      unicode="&#xE61D;"
      horiz-adv-x="1001" d="M500.5 1001C224.06759375 1001 0 776.93240625 0 500.5S224.06759375 0 500.5 0C776.93240625 0 1001 224.06759375 1001 500.5S776.93240625 1001 500.5 1001V1001zM500.5 77.0144375C266.9541875 77.0144375 77.0144375 266.98546875 77.0144375 500.5S266.98546875 923.9855625 500.5 923.9855625C734.0458125 923.9855625 923.9855625 734.01453125 923.9855625 500.5S734.01453125 77.0144375 500.5 77.0144375V77.0144375zM808.4951875 539.00721875H608.9208125C597.2841875 571.66484375 571.66484375 597.2841874999999 539.0072187500001 608.9208125V808.4951874999999C539.0072187500001 829.73515625 521.6774062500001 847.0024062499999 500.5 847.0024062499999C479.1661875 847.0024062499999 461.99278125 829.7664374999999 461.99278125 808.4951874999999V608.9208125C417.26059375 592.967375 384.97834375 550.64384375 384.97834375 500.5C384.97834375 436.811375 436.811375 385.0096250000001 500.46871875 385.0096250000001C550.58128125 385.0096250000001 592.93609375 417.26059375 608.88953125 462.0240625H808.4639062499999C829.6413124999999 462.0240625 846.971125 479.2600312499999 846.971125 500.53128125S829.6413125 539.0385 808.4639062499999 539.0385V539.0385zM500.5 461.9927812499999C479.1661875 461.9927812499999 461.99278125 479.2287499999999 461.99278125 500.5S479.1661875 539.00721875 500.5 539.00721875C521.67740625 539.00721875 539.0072187500001 521.77125 539.0072187500001 500.5S521.6774062500001 461.9927812499999 500.5 461.9927812499999V461.9927812499999z" />
    <glyph glyph-name="clothes"
      unicode="&#xE61E;"
      horiz-adv-x="1001" d="M800.8625625 50.0500000000001H200.2625625000001C193.1930000000001 50.0500000000001 186.4988125000001 53.053 181.6815000000001 58.30825C176.9893125000001 63.5009375000001 174.6119375000001 70.5705 175.3314062500001 77.5775L220.8769062500001 532.87609375L61.3112500000001 453.10890625C53.5535 449.2613124999999 44.3568125000001 449.66796875 36.9744375 454.20375C29.56078125 458.7708125 25.05628125 466.81009375 25.05628125 475.475V775.775C25.05628125 785.2219375 30.405375 793.88684375 38.88259375 798.14109375L239.0825937500001 898.24109375L250.2812812500001 900.9H333.4581250000001C344.5316875000001 900.9 354.2914375000001 893.64275 357.4195625000001 883.0696875C373.8422187500001 828.452625 421.9215000000001 800.8 500.5000000000001 800.8S627.1890625 828.48390625 643.5804375 883.0696875C646.6772812500001 893.64275 656.49959375 900.9 667.541875 900.9H750.71871875L761.91740625 898.24109375L962.11740625 798.14109375C970.56334375 793.88684375 975.94371875 785.2219375 975.94371875 775.775V475.475C975.94371875 466.81009375 971.43921875 458.7708125 964.088125 454.20375C956.73703125 449.60540625 947.5090624999998 449.19875 939.7513125 453.10890625L780.1856562500001 532.87609375L825.73115625 77.5775C826.41934375 70.5079375 824.07325 63.5009375000001 819.3810625000001 58.30825C814.53246875 53.053 807.807 50.0500000000001 800.7687187500001 50.0500000000001V50.0500000000001zM227.9464687500002 100.1H773.24121875L725.94396875 573.0725C725.0368125 582.1440624999999 729.13465625 590.9966562499999 736.7047187500001 596.1580624999999C744.14965625 601.35075 753.9094062500001 602.0076562499999 762.0738125 597.9723749999999L926.050125 515.9842187499999V760.3220624999999L744.9316875000001 850.8499999999999H685.1845000000001C657.5944375 786.1290937499999 592.84225 750.7499999999999 500.5938437500002 750.7499999999999S343.5932500000002 786.1290937499999 316.0031875000002 850.8499999999999H256.2560000000002L75.1688437500002 760.3220624999999V515.9842187499999L239.1451562500002 597.9723749999999C247.3408437500002 602.0702187499999 257.0067500000002 601.38203125 264.5142500000002 596.1580624999999S276.1195937500002 582.1440624999999 275.2750000000001 573.0725L227.9777500000001 100.1z" />
    <glyph glyph-name="crown"
      unicode="&#xE61F;"
      horiz-adv-x="1001" d="M866.8347187499999 233.57709375H134.2278437499998C125.2814062499998 233.57709375 117.9928749999998 240.58409375 117.5549374999998 249.53053125L86.8680312499998 683.307625C86.4926562499998 690.53359375 90.9345937499998 698.2287812500001 97.7851874999998 700.73128125C104.6044999999998 703.29634375 112.2371249999998 700.04309375 116.6790624999998 694.28734375L295.4826874999999 476.4134375000001L489.2387499999998 695.3196250000001C492.3981562499998 698.7918437500002 496.8713749999998 700.7625625000001 501.4697187499999 700.7625625000001H501.5322812499998C506.1931874999999 700.7625625000001 510.6664062499999 698.7918437500001 513.7632499999999 695.3821875000001L708.9895312499999 476.3508750000002L887.8244374999998 694.2873437500001C892.2976562499998 700.0118125000001 899.8989999999998 702.2640625000001 906.74959375 699.7302812500002C913.56890625 697.2277812500001 918.042125 690.5961562500001 917.6354687499996 683.3076250000001L883.4450624999998 249.5305312500001C883.0384062499998 240.5528125000002 875.7185937499999 233.5458125000001 866.8347187499999 233.5458125000001V233.5458125000001zM150.1499999999999 266.92290625H850.8499999999999L882.0061249999998 632.3191875L723.2537812499999 440.2523125C720.2507812499998 436.3734375000002 715.6837187499998 434.02734375 710.8038437499998 433.8083750000002C705.8301249999998 433.3704375000001 701.1692187499999 435.5288437500001 697.7908437499998 439.1887500000002L501.5635624999999 659.3461875L306.7439374999999 439.2200312500002C303.4281249999999 435.5914062500001 298.8610624999999 433.3078750000001 293.7309374999999 433.8083750000002C288.8510624999999 433.9960625000002 284.2839999999999 436.3421562500002 281.2809999999999 440.2523125000002L122.4973749999999 632.3191875000002L150.1499999999999 266.9229062500002zM100.0999999999999 667.32290625C54.0852812499999 667.32290625 16.6729062499999 704.7665625 16.6729062499999 750.75S54.0852812499999 834.17709375 100.0999999999999 834.17709375C146.1147187499999 834.17709375 183.5270937499999 796.7334375 183.5270937499999 750.75S146.1147187499999 667.32290625 100.0999999999999 667.32290625V667.32290625zM100.0999999999999 800.8C72.5099374999999 800.8 50.0499999999999 778.3400624999999 50.0499999999999 750.75S72.5099374999999 700.7 100.0999999999999 700.7C127.6900624999999 700.7 150.1499999999999 723.1599375000001 150.1499999999999 750.75S127.6900624999999 800.8 100.0999999999999 800.8V800.8zM502.1266249999999 667.32290625C456.1119062499999 667.32290625 418.6995312499999 704.7665625 418.6995312499999 750.75S456.1119062499999 834.17709375 502.1266249999999 834.17709375C548.1413437499999 834.17709375 585.5537187499999 796.7334375 585.5537187499999 750.75S548.1413437499999 667.32290625 502.1266249999999 667.32290625V667.32290625zM502.1266249999999 800.8C474.5678437499999 800.8 452.0766249999999 778.3400624999999 452.0766249999999 750.75S474.5678437499999 700.7 502.1266249999999 700.7C529.7166874999999 700.7 552.176625 723.1599375000001 552.176625 750.75S529.7166874999999 800.8 502.1266249999999 800.8V800.8zM900.8999999999997 667.32290625C854.8852812499999 667.32290625 817.4729062499999 704.7665625 817.4729062499999 750.75S854.88528125 834.17709375 900.8999999999997 834.17709375C946.9147187500002 834.17709375 984.3270937500002 796.7334375 984.3270937500002 750.75S946.9147187500002 667.32290625 900.8999999999997 667.32290625V667.32290625zM900.8999999999997 800.8C873.3099374999998 800.8 850.8499999999999 778.3400624999999 850.8499999999999 750.75S873.3099374999998 700.7 900.8999999999997 700.7C928.4900625 700.7 950.95 723.1599375000001 950.95 750.75S928.4900625 800.8 900.8999999999997 800.8V800.8zM884.2270937499999 183.5270937500001C884.2270937499999 174.33040625 876.71959375 166.8541875 867.5541874999998 166.8541875H133.4770937499999C124.3116874999999 166.8541875 116.8041874999999 174.33040625 116.8041874999999 183.5270937500001S124.3116874999999 200.2000000000001 133.4770937499999 200.2000000000001H867.5541874999998C876.7195937499998 200.2000000000001 884.2270937499999 192.72378125 884.2270937499999 183.5270937500001z" />
    <glyph glyph-name="custom-service"
      unicode="&#xE620;"
      horiz-adv-x="1001" d="M804.4286249999998 134.6970625L804.2409375 135.04115625C802.6768749999999 142.39225 797.6718749999998 148.30440625 790.6961562499998 150.8381875C773.3663437499999 163.8511875 761.6358749999999 195.7893437500001 759.2272187499998 222.347125V224.599375C814.6263124999998 286.2234375 848.6603125000001 367.52340625 848.6603125000001 456.9565C848.6603125000001 649.273625 692.7545624999998 805.1168125 500.4999999999998 805.1168125S152.3396874999999 649.273625 152.3396874999999 456.9565C152.3396874999999 269.3315625 300.8004999999999 116.9293125 486.5798437499998 109.51565625V108.76490625H783.4076249999998C795.4196249999998 108.76490625 805.2106562499998 118.52465625 805.2106562499998 130.5366562500001L804.3034999999998 134.7596250000002L804.4286249999998 134.6657812500001zM667.4167499999999 303.89734375L674.1734999999999 295.9831875L674.2673437499998 295.7955L674.2360624999999 295.8267812500001L674.6739999999998 293.69965625C674.6739999999998 287.6623749999999 669.7941249999999 282.8137812500001 663.7881249999998 282.8137812500001L663.4440312499999 282.9076250000001L663.5378749999998 282.8137812500001H493.6181249999999V283.157875C400.7128125 286.9116250000001 326.4824062499999 363.11275 326.4824062499999 456.8939375000001C326.4824062499999 487.83109375 335.2411562499999 516.48471875 349.3802812499999 541.6348437500001L326.4824062499999 587.4931562500001H386.5424062499999C417.1354687499999 614.2699062500001 456.7062499999998 631.005375 500.5625624999998 631.005375C596.6898437499999 631.005375 674.6427187499999 553.0525 674.6427187499999 456.92521875C674.6427187499999 412.2243125 657.6257187499998 371.5899687499999 629.9418125 340.715375V339.62053125C644.6127187499999 316.0031875 658.7518437499998 310.34128125 667.4167499999999 303.83478125V303.83478125z" />
    <glyph glyph-name="custom-service2"
      unicode="&#xE621;"
      horiz-adv-x="1001" d="M942.7386718750003 134.6970625L942.5509843749998 135.04115625C940.9869218749998 142.39225 935.9819218749998 148.30440625 929.006203125 150.8381875C911.676390625 163.8511875 899.9459218750001 195.7893437500001 897.5372656249999 222.347125V224.599375C952.936359375 286.2234375 986.9703593750002 367.52340625 986.9703593750002 456.9565C986.9703593750002 649.273625 831.0646093749999 805.1168125 638.8100468749999 805.1168125S290.6497343749999 649.273625 290.6497343749999 456.9565C290.6497343749999 269.3315625 439.1105468749999 116.9293125 624.8898906249999 109.51565625V108.76490625H921.717671875C933.7296718749998 108.76490625 943.520703125 118.52465625 943.520703125 130.5366562500001L942.6135468749998 134.7596250000002L942.7386718750003 134.6657812500001zM805.7267968749999 303.89734375L812.4835468749999 295.9831875L812.5773906249999 295.7955L812.5461093749999 295.8267812500001L812.9840468749999 293.69965625C812.9840468749999 287.6623749999999 808.1041718749999 282.8137812500001 802.0981718749999 282.8137812500001L801.754078125 282.9076250000001L801.8479218749999 282.8137812500001H631.928171875V283.157875C539.022859375 286.9116250000001 464.7924531249999 363.11275 464.7924531249999 456.8939375000001C464.7924531249999 487.83109375 473.551203125 516.48471875 487.6903281249999 541.6348437500001L464.7924531249999 587.461875H524.8524531249999C555.445515625 614.238625 595.0162968749999 630.9740937500001 638.8726093749999 630.9740937500001C734.9998906249999 630.9740937500001 812.952765625 553.0212187500001 812.952765625 456.8939375000001C812.952765625 412.1930312500001 795.9357656249999 371.5586875 768.251859375 340.6840937500001V339.5892500000001C782.922765625 316.0031875 797.0618906249999 310.3412812500001 805.726796875 303.8660625000001V303.8660625000001zM203.6565781249999 572.2591875C198.7454218749999 572.2591875 193.6778593749999 573.1350625 188.7667031249999 574.91809375C166.1503593749999 583.1137812500001 154.5137343749999 608.13878125 162.7407031249999 630.66128125C177.6305781249999 671.57715625 198.3700468749999 709.7715625000001 224.3960468749999 744.2435C238.8479843749999 763.4501875000001 266.093953125 767.2977812500001 285.3319218749999 752.7207187500001C304.4760468749999 738.2375000000001 308.323640625 710.9289687500001 293.809140625 691.78484375C273.0071093750001 664.2260625000001 256.4280468749999 633.633 244.4473281249999 600.8815312500001C238.0972343749999 583.207625 221.3930468749999 572.2591875 203.6252968749999 572.2591875zM56.2906093749999 622.1840625L45.7175468749999 623.4353125C22.3817343749999 629.3161875000001 8.2426093749999 652.90225 14.0296406249999 676.2380625000001C33.2676093749999 753.40890625 73.1824843749999 823.72915625 129.4574531249999 879.53490625C146.5057343749999 896.4580625 174.0332343749999 896.42678125 190.9876718749999 879.28465625C207.9108281249999 862.236375 207.8169843749999 834.67759375 190.7374218749999 817.7544375C145.7862656249999 773.17865625 113.8481093749999 716.96625 98.4264531249999 655.18578125C93.5465781249999 635.47859375 75.8101093749999 622.1840625 56.2906093749999 622.1840625z" />
    <glyph glyph-name="custom-service3"
      unicode="&#xE622;"
      horiz-adv-x="1001" d="M868.414421875 134.6970625L868.2267343750001 135.04115625C866.662671875 142.39225 861.657671875 148.30440625 854.6819531250001 150.8381875C837.3521406250001 163.8511875 825.6216718750001 195.7893437500001 823.213015625 222.347125V224.599375C878.612109375 286.2234375 912.646109375 367.52340625 912.646109375 456.9565C912.646109375 649.273625 756.740359375 805.1168125 564.485796875 805.1168125S216.3254843749999 649.273625 216.3254843749999 456.9565C216.3254843749999 269.3315625 364.786296875 116.9293125 550.5656406249999 109.51565625V108.76490625H847.3934218750001C859.405421875 108.76490625 869.1964531250001 118.52465625 869.1964531250001 130.5366562500001L868.289296875 134.7596250000002L868.414421875 134.6657812500001zM731.371265625 303.89734375L738.128015625 295.9831875L738.221859375 295.7955L738.190578125 295.8267812500001L738.628515625 293.69965625C738.628515625 287.6623749999999 733.748640625 282.8137812500001 727.742640625 282.8137812500001L727.398546875 282.9076250000001L727.492390625 282.8137812500001H557.5726406250001V283.157875C464.6673281250002 286.9116250000001 390.4369218750001 363.11275 390.4369218750001 456.8939375000001C390.4369218750001 487.83109375 399.195671875 516.48471875 413.3347968750001 541.6348437500001L390.4369218750001 587.461875H450.496921875C481.0899843750001 614.238625 520.660765625 630.9740937500001 564.517078125 630.9740937500001C660.644359375 630.9740937500001 738.5972343750001 553.0212187500001 738.5972343750001 456.8939375000001C738.5972343750001 412.1930312500001 721.580234375 371.5586875 693.8963281250001 340.6840937500001V339.5892500000001C708.5672343750001 316.0031875 722.706359375 310.3412812500001 731.3712656250001 303.8660625000001V303.8660625000001zM129.269765625 572.2591875C124.358609375 572.2591875 119.291046875 573.1350625 114.379890625 574.91809375C91.763546875 583.1137812500001 80.126921875 608.13878125 88.353890625 630.66128125C103.243765625 671.57715625 123.983234375 709.7715625000001 150.009234375 744.2435C164.461171875 763.4501875000001 191.707140625 767.2977812500001 210.945109375 752.7207187500001C230.089234375 738.2375000000001 233.936828125 710.9289687500001 219.422328125 691.78484375C198.620296875 664.2260625000001 182.041234375 633.633 170.060515625 600.8815312500001C163.7417031250001 583.207625 147.0375156250001 572.2591875 129.238484375 572.2591875z" />
    <glyph glyph-name="diamond"
      unicode="&#xE623;"
      horiz-adv-x="1001" d="M980.76103125 677.6769999999999L822.0086875000001 894.54990625C818.84928125 898.55390625 814.0006875 900.9 808.933125 900.9H188.71978125C183.65221875 900.9 178.803625 898.55390625 175.70678125 894.54990625L20.3328125 677.6769999999999C15.60934375 671.7022812499999 15.5155 663.2876249999999 20.17640625 657.2190625000001L485.0470625 73.2919687499999C488.14390625 69.2254062499999 492.96121875 66.78546875 498.0287812500001 66.7229062499998H498.3415937500001C503.3465937500001 66.7229062499998 508.1326250000001 68.9438749999999 511.22946875 72.8540312499999L980.69846875 656.781125C985.64090625 662.8496875 985.70346875 671.5145937499999 980.82359375 677.6769999999999V677.6769999999999zM346.43984375 643.8306875000001L217.2795625000001 867.52290625H482.63840625L352.5396875000002 642.2979062500001C351.0381875000001 639.67028125 350.6002500000002 636.7924062500001 350.63153125 633.9458125000001H348.2541562500001C348.59825 637.29290625 348.1915937500001 640.73384375 346.4085625000002 643.8306875000001V643.8306875000001zM651.8386875 600.5999999999999L501.09434375 149.4618125L350.31871875 600.5999999999999H651.8386875zM386.3234375 633.97709375L501.0005 832.5191875L615.615 633.97709375H386.3234375000002zM315.1898750000001 600.5999999999999L470.06334375 146.2398437499999L107.6075 600.5999999999999H315.1898750000001zM686.93625 600.5999999999999H892.5791875L536.75496875 157.6887812499999L686.9362500000001 600.5999999999999zM652.68328125 633.97709375H650.3371875C650.68128125 637.3241874999999 650.274625 640.765125 648.49159375 643.86196875L519.3313125 867.5541875H784.69015625L654.5914375 642.3291875C653.05865625 639.7015624999999 652.6519999999999 636.8236875 652.6519999999999 633.97709375V633.97709375zM186.811625 853.50890625L313.5632500000001 633.9458125H83.42709375C82.48865625 633.9458125 82.42609375 633.16378125 81.8317499999999 632.88225L54.4919375 667.1039375L186.78034375 853.477625zM918.9805625 633.507875C918.4175 633.633 918.4175 633.97709375 917.6041875 633.97709375H688.34390625L813.3125 850.3495L946.2578125 667.4793125000001L919.0118437500003 633.507875z" />
    <glyph glyph-name="dot"
      unicode="&#xE624;"
      horiz-adv-x="1001" d="M1001 500.5C1001 224.06759375 776.93240625 0 500.5 0S0 224.06759375 0 500.5C0 776.93240625 224.06759375 1001 500.5 1001S1001 776.93240625 1001 500.5z" />
    <glyph glyph-name="douban"
      unicode="&#xE625;"
      horiz-adv-x="1001" d="M357.7949375000001 616.0529375000001H641.7661250000001V497.7159687500001H357.7949375000002V616.0529375000001zM500.5000000000001 1001C223.2855625000001 1001 -1.4702187499999 776.901125 -1.4702187499999 500.5C-1.4702187499999 224.06759375 223.2855625000001 0 500.46871875 0C777.777 0 1002.4702187499998 224.098875 1002.4702187499998 500.5S777.7769999999999 1001 500.5 1001V1001zM760.1030937500001 261.0420312499999H239.4892500000001V308.433125H401.9327812500001C387.7623750000001 355.7616562499999 369.3064375000001 374.5616875000001 346.3460000000001 408.9085L401.9327812500001 428.7408125C423.95478125 396.1457499999999 443.6306875000001 355.7929375 461.05434375 308.46440625H566.2219062500001C587.0239375 355.7929375000001 605.3234687500001 387.7936562500001 620.9953750000001 430.9617812500001L681.43075 406.7813750000001C665.665 370.40128125 648.5541562500001 355.7929375000001 630.5361562500001 308.46440625H760.1030937500001V261.0733125000001zM286.8177812500001 663.3814687500001H712.7745625000001V450.3561562500001H286.8177812500001V663.3814687500001zM263.1378750000001 781.655875H760.0718125V734.3273437500001H263.1378750000001V781.655875z" />
    <glyph glyph-name="error"
      unicode="&#xE626;"
      horiz-adv-x="1001" d="M500.5 1001C224.098875 1001 0 776.93240625 0 500.5S224.098875 0 500.5 0C776.901125 0 1001 224.06759375 1001 500.5S776.901125 1001 500.5 1001V1001zM500.5 111.236125C285.9106250000001 111.236125 111.236125 285.910625 111.236125 500.5000000000001C111.236125 715.1519375 285.910625 889.7638750000001 500.5 889.7638750000001S889.7638750000001 715.1519375 889.7638750000001 500.5000000000001C889.7638750000001 285.910625 715.0893750000001 111.236125 500.5 111.236125V111.236125zM692.03509375 692.066375C670.3571875 713.7442812500001 635.1345000000001 713.713 613.39403125 692.066375L500.5 579.17234375L387.60596875 692.066375C365.8655 713.713 330.67409375 713.7442812500001 308.96490625 692.066375C287.1618750000001 670.2633437500001 287.2244375 635.0719375 308.96490625 613.36275L421.8589375 500.4687187500001L308.96490625 387.5746875C287.2244375 365.83421875 287.1618750000001 330.6428125 308.96490625 308.933625C330.6428125 287.19315625 365.8655000000001 287.19315625 387.60596875 308.933625L500.5 421.82765625L613.39403125 308.9336249999999C635.1345000000001 287.1931562499999 670.3259062500001 287.1931562499999 692.03509375 308.9336249999999C713.838125 330.61153125 713.7755625000001 365.8342187499999 692.03509375 387.5746874999999L579.1410625000001 500.4687187499998L692.0350937500001 613.3627499999998C713.7755625000002 635.0406562499998 713.8381250000001 670.2633437499999 692.0350937500001 692.0663749999999z" />
    <glyph glyph-name="exchange"
      unicode="&#xE627;"
      horiz-adv-x="1001" d="M450.465640625 100.1H283.6427343750001C274.4773281250001 100.1 266.9698281250001 107.57621875 266.9698281250001 116.77290625V500.5H116.819828125C110.094359375 500.5 103.963234375 504.5665625 101.398171875 510.8228125S100.272046875 524.24246875 105.026796875 528.99721875L438.7038906250001 862.6743125C443.4899218750001 867.491625 450.622046875 868.8679999999999 456.847015625 866.27165625C463.1345468750001 863.70659375 467.169828125 857.6067499999999 467.169828125 850.8499999999999V116.77290625C467.169828125 107.57621875 459.662328125 100.1 450.4969218750001 100.1V100.1zM300.315640625 133.47709375H433.792734375V810.59103125L157.078796875 533.8770937500001H283.6427343750001C292.808140625 533.8770937500001 300.315640625 526.400875 300.315640625 517.2041875V133.4770937500001zM550.565640625 100.1L544.1842656250001 101.3825312499999C537.896734375 103.94759375 533.861453125 110.0474375 533.861453125 116.8041874999999V850.8812812499999C533.861453125 860.0779687499999 541.368953125 867.5541874999999 550.5343593750001 867.5541874999999H717.3572656250001C726.522671875 867.5541874999999 734.0301718750002 860.0779687499999 734.0301718750002 850.8812812499999V467.1541874999999H884.180171875C890.9056406250002 467.1541874999999 897.0367656250003 463.087625 899.6018281250001 456.831375S900.7279531250002 443.41171875 896.0044843750002 438.6569687500001L562.2961093750002 104.9798750000001C559.1367031250002 101.82046875 554.8511718750001 100.1000000000001 550.5030781250002 100.1000000000001V100.1000000000001zM567.2385468749999 834.17709375V157.06315625L843.952484375 433.7770937500001H717.388546875C708.223140625 433.7770937500001 700.7156406249999 441.2533125000001 700.7156406249999 450.45V834.17709375H567.2385468749999z" />
    <glyph glyph-name="favorite"
      unicode="&#xE628;"
      horiz-adv-x="1001" d="M500.5000000000001 88.33825L486.2983125 91.9981562500001C467.6234062500001 102.2896875000001 29.43565625 342.6548125000001 29.43565625 591.43459375C29.43565625 601.9138125000001 30.03 612.2679062500001 30.78075 622.5907187500001C29.8423125 626.1255000000001 29.43565625 635.1970625000001 29.43565625 644.4875937500001C29.43565625 792.3540625 154.0914375000001 912.63046875 307.3070000000001 912.63046875C380.09846875 912.63046875 448.8546562500001 843.1548125 500.5 794.8565625C552.1453437499999 843.1548125 620.9015312500001 912.63046875 693.6930000000001 912.63046875C846.9085625 912.63046875 971.56434375 792.32278125 971.56434375 644.4875937500001C971.56434375 635.1970625 971.095125 626.1255000000001 970.0941249999998 617.1165000000001C971.0325625 612.2991875 971.56434375 601.81996875 971.56434375 591.3407500000001C971.56434375 342.4358437500001 533.407875 102.1020000000001 514.7016875 91.8417500000001L500.5 88.36953125z" />
    <glyph glyph-name="favorite-product"
      unicode="&#xE629;"
      horiz-adv-x="1001" d="M489.786171875 88.963875C486.7831718749999 88.963875 483.936578125 90.1525625000001 481.840734375 92.31096875L104.432453125 476.31959375C12.246609375 570.16334375 9.806671875 725.13065625 99.052078125 814.814C152.386609375 868.39878125 209.3810468750001 895.5821875 268.4400468750001 895.5821875H269.065671875C328.343640625 895.3945 387.027265625 867.46034375 438.7977343750001 814.78271875L489.786171875 763.79428125L540.8058906250001 814.84528125C591.825609375 866.740875 649.946171875 894.42478125 708.911328125 894.894H710.381546875C769.440546875 894.894 826.622671875 867.992125 880.395140625 814.90784375C970.453859375 725.97525 967.982640625 570.945375 875.046046875 476.3508750000001C870.7292343749999 471.9715 863.690953125 471.9402187500001 859.311578125 476.2257500000001S854.869640625 487.58084375 859.1551718750001 491.96021875C942.206890625 576.48215625 944.803234375 720.00053125 864.7232343750001 799.07953125C814.860921875 848.31621875 762.0581718750001 872.96584375 709.036453125 872.6843125C656.139859375 872.2776562500001 603.3996718750001 846.87728125 556.5716406250001 799.2359375L497.606484375 740.2394999999999C493.446078125 736.07909375 486.063703125 736.07909375 481.872015625 740.2394999999999L422.969421875 799.14209375C375.390640625 847.5341874999999 322.1499531250001 873.1848125 268.9405468750001 873.3725H268.4087656250001C215.4808906250001 873.3725 163.8042656250001 848.37878125 114.7865468750001 799.173375C33.9245156250001 717.93596875 36.4582968750001 577.2641874999999 120.2607656250001 491.96021875L489.7236093750001 115.990875L574.9024531250001 202.73378125C579.219265625 207.11315625 586.257546875 207.1444374999999 590.636921875 202.85890625S595.078859375 191.5038125 590.793328125 187.1244375L497.6690468749999 92.3422499999999C495.5732031249998 90.1838437499999 492.6953281249999 88.9951562499999 489.754890625 88.9951562499999zM734.749640625 155.7180625000001C642.563796875 155.7180625000001 567.5513593750001 230.63665625 567.5513593750001 322.72865625S642.563796875 489.77053125 734.749640625 489.77053125C826.935484375 489.77053125 901.947921875 414.8519375 901.947921875 322.72865625S826.935484375 155.7180625000001 734.749640625 155.7180625000001V155.7180625000001zM734.749640625 467.49828125C654.826046875 467.49828125 589.792328125 402.55840625 589.792328125 322.6973750000001S654.826046875 177.9277500000001 734.749640625 177.9277500000001S879.706953125 242.8676250000001 879.706953125 322.6973750000001C879.706953125 402.5271250000002 814.673234375 467.49828125 734.749640625 467.49828125V467.49828125zM734.374265625 222.6286562500001C728.211859375 222.6286562500001 723.2381406249999 227.602375 723.2381406249999 233.7647812500001V411.7238125000001C723.2381406249999 417.88621875 728.2118593749999 422.8599375000001 734.374265625 422.8599375000001S745.510390625 417.8862187500002 745.510390625 411.7238125000001V233.7647812500001C745.510390625 227.6023750000001 740.536671875 222.6286562500001 734.374265625 222.6286562500001zM823.9637656250001 311.78021875H646.004734375C639.842328125 311.78021875 634.868609375 316.7539374999999 634.868609375 322.91634375S639.8423281249999 334.0524687500001 646.004734375 334.0524687500001H823.9637656250001C830.0948906250001 334.0524687500001 835.0998906250001 329.0787500000002 835.0998906250001 322.91634375S830.0948906250001 311.78021875 823.9637656250001 311.78021875z" />
    <glyph glyph-name="favorite-shop"
      unicode="&#xE62A;"
      horiz-adv-x="1001" d="M845.360140625 400.7753750000001C839.1977343750001 400.7753750000001 834.224015625 405.7490937500001 834.224015625 411.9115000000001V434.1524687500001C834.224015625 440.3148750000001 839.197734375 445.2885937500002 845.360140625 445.2885937500002S856.4962656250001 440.3148750000002 856.4962656250001 434.1524687500001V411.9115000000001C856.4962656250001 405.7490937500002 851.5225468750001 400.7753750000001 845.360140625 400.7753750000001zM745.635515625 66.34753125C653.449671875 66.34753125 578.4372343750001 141.266125 578.4372343750001 233.358125S653.449671875 400.3687187500001 745.635515625 400.3687187500001C837.852640625 400.3687187500001 912.833796875 325.450125 912.833796875 233.32684375S837.821359375 66.31625 745.635515625 66.31625V66.31625zM745.635515625 378.15903125C665.711921875 378.15903125 600.6782031250001 313.2191562500001 600.6782031250001 233.358125S665.711921875 88.5885000000001 745.635515625 88.5885000000001S890.5928281250001 153.528375 890.5928281250001 233.358125C890.5928281250001 313.187875 825.559109375 378.15903125 745.635515625 378.15903125V378.15903125zM745.2601406250001 133.6334999999999C739.0977343750001 133.6334999999999 734.124015625 138.6072187499999 734.124015625 144.769625V322.72865625C734.124015625 328.8910625 739.097734375 333.8647812500001 745.2601406250001 333.8647812500001S756.3962656250001 328.8910625000001 756.3962656250001 322.72865625V144.769625C756.3962656250001 138.60721875 751.4225468750001 133.6334999999999 745.2601406250001 133.6334999999999zM834.5993906250001 222.44096875H656.6403593750001C650.509234375 222.44096875 645.504234375 227.4146875 645.504234375 233.57709375S650.477953125 244.7132187500001 656.6403593750001 244.7132187500001H834.5993906250001C840.7305156250002 244.7132187500001 845.7355156250002 239.7395000000002 845.7355156250002 233.57709375S840.7617968750002 222.44096875 834.5993906250001 222.44096875zM812.014328125 856.4180625H189.1733593750001C164.6488593750001 856.4180625 144.6914218750001 873.873 144.6914218750001 895.3319375S164.6488593750001 934.2458125 189.1733593750001 934.2458125H812.014328125C836.538828125 934.2458125 856.4962656250001 916.790875 856.4962656250001 895.3319375S836.538828125 856.4180625 812.014328125 856.4180625V856.4180625zM189.1420781250001 912.036125C177.0987968750001 912.036125 166.901109375 904.37221875 166.901109375 895.36321875C166.901109375 886.29165625 177.0987968750001 878.6903125 189.1420781250001 878.6903125H811.9830468750001C824.0263281250002 878.6903125 834.2240156250001 886.3229375000001 834.2240156250001 895.36321875C834.2240156250001 904.4035 824.0263281250001 912.036125 811.9830468750001 912.036125H189.1420781250001zM834.2552968750001 478.25903125C785.0186093750001 478.25903125 742.3822656250001 507.66340625 723.0191718750001 549.8618125C703.6560781250001 507.632125 661.0197343750001 478.25903125 611.7830468750001 478.25903125S519.910015625 507.66340625 500.546921875 549.8618125C481.183828125 507.632125 438.5474843750001 478.25903125 389.310796875 478.25903125S297.437765625 507.66340625 278.074671875 549.8618125C258.711578125 507.632125 216.075234375 478.25903125 166.838546875 478.25903125C99.959234375 478.25903125 45.279609375 532.532 44.528859375 599.38003125L44.497578125 600.9440937500001C44.560140625 621.4958750000001 49.658984375 641.4220312500001 59.168484375 659.0020937500001L133.555296875 792.76071875C135.1506406249999 815.8775625000001 154.4198906249999 834.17709375 177.943390625 834.17709375H823.025328125C846.517546875 834.17709375 865.8180781249999 815.8775625000001 867.4134218749999 792.76071875L941.7689531249998 659.1272187500001C951.434859375 641.2343437500001 956.502421875 621.0892187500001 956.502421875 600.7876875000001H956.4711406249997L956.502421875 600.19334375C956.158328125 532.93865625 901.2910156249998 478.22775 834.1614531249999 478.22775V478.22775zM722.9878906250001 611.39203125C729.1190156250001 611.39203125 734.1552968750001 606.4495937500001 734.1865781250001 600.3497500000001C734.436828125 545.3260312499999 779.3567031250001 500.5312812500001 834.2552968750001 500.5312812500001S934.073765625 545.29475 934.3240156250002 600.3497500000001C934.355296875 617.46059375 930.1948906249997 633.9458125 922.343296875 648.4603125L846.767796875 784.31478125C845.8606406250001 785.9726875 845.360140625 787.81828125 845.360140625 789.7264375C845.360140625 801.9574062500001 835.381421875 811.9674062500001 823.1191718750001 811.9674062500001H178.0372343750001C165.7437031250001 811.9674062500001 155.7962656250001 801.9574062500001 155.7962656250001 789.7264375C155.7962656250001 787.8495625 155.3270468750001 785.9726875 154.3886093750001 784.31478125L78.7505468750001 648.3351875C71.0240781250001 634.0083749999999 66.8636718750001 617.64828125 66.8011093750001 601.1317812499999L66.8323906250001 600.34975C67.0826406250001 545.3260312499999 112.0025156250001 500.5312812499999 166.901109375 500.5312812499999S266.7195781250001 545.29475 266.9698281250001 600.3497499999999C267.0011093750001 606.4495937499998 271.9748281250002 611.39203125 278.1059531250001 611.39203125S289.2733593750001 606.4495937499998 289.3046406250002 600.3497499999999C289.5548906250001 545.3260312499999 334.4747656250001 500.5312812499999 389.3733593750001 500.5312812499999S489.1918281250001 545.29475 489.4420781250001 600.3497499999999C489.4733593750001 606.4495937499998 494.4470781250001 611.39203125 500.5782031250001 611.39203125S511.7456093750001 606.4495937499998 511.7768906250001 600.3497499999999C512.027140625 545.3260312499999 556.9470156250001 500.5312812499999 611.8456093750001 500.5312812499999S711.6640781250001 545.29475 711.9143281250001 600.3497499999999C711.9456093750001 606.4495937499998 716.9193281250001 611.39203125 723.0504531250001 611.39203125V611.39203125zM567.301109375 111.58021875H189.1420781250001C164.6175781250001 111.58021875 144.6601406250001 131.5063750000001 144.6601406250001 156.0621562500001V434.1211875C144.6601406250001 440.28359375 149.6338593750001 445.2573125 155.7962656250001 445.2573125S166.9323906250001 440.2835937500002 166.9323906250001 434.1211875V156.0621562500001C166.9323906250001 143.7686250000001 176.9111093750001 133.8211875000001 189.1733593750001 133.8211875000001H567.3323906250001C573.494796875 133.8211875000001 578.4685156250001 128.8474687500001 578.4685156250001 122.6850625000001S573.4947968750001 111.5489375 567.3323906250001 111.5489375z" />
    <glyph glyph-name="four-corner"
      unicode="&#xE62B;"
      horiz-adv-x="1001" d="M0 980.13540625V886.29165625H31.28125V969.71875H114.70834375V1001H0V980.13540625zM886.29165625 1001V969.71875H969.71875V886.29165625H1001V1001H886.29165625zM31.28125 114.7083437500001H0V0H114.70834375V31.28125H31.28125V114.7083437500001zM969.71875 31.28125H886.29165625V0H1001V114.7083437500001H969.71875V31.28125z" />
    <glyph glyph-name="guarantee"
      unicode="&#xE62C;"
      horiz-adv-x="1001" d="M924.095046875 792.54175L509.274390625 969.18696875C501.8607343750001 972.37765625 493.383515625 972.37765625 486.001140625 969.12440625L76.654703125 792.4791875000001C65.831390625 787.81828125 58.886953125 777.18265625 58.886953125 765.4521875V555.89909375C58.886953125 498.9046562500001 69.710265625 441.1281875 90.574859375 388.7946562500001C144.0970781250001 248.7797812500001 255.9275468750001 176.050875 364.129390625 105.7931875000001L380.3330781250001 95.4390937500001C409.7687343750001 79.954875 487.033421875 33.658625 487.0959843750001 33.6273437500001C491.5692031250001 30.87459375 496.918296875 29.4356562500001 502.236109375 29.4356562500001C511.3702343750001 29.4356562500001 520.0664218750001 29.4356562500001 622.8878906250001 96.7529062500001L636.557796875 105.6993437500001C744.947328125 176.0508750000001 856.8403593749999 248.6546562500002 910.081046875 388.3880000000002C931.633828125 442.5045625000002 942.113046875 497.3093125000001 942.113046875 555.8365312500001V765.4521875C942.113046875 777.2139375000002 935.043484375 787.9434062500002 924.157609375 792.5417500000001V792.5417500000001zM883.1478906250001 555.83653125C883.1478906250001 504.91065625 873.888640625 457.3318750000001 855.057328125 409.81565625C808.479546875 287.69365625 704.782203125 220.2825624999999 604.4632343750001 155.2175625L590.5743593750001 146.2085625C554.8198906250001 122.84146875 521.0361406250001 97.81646875 503.956578125 88.3382499999999C480.182828125 102.4148124999999 430.946140625 135.4478125 410.112828125 146.271125L396.349078125 155.2175625C296.061390625 220.3451250000001 192.270203125 287.69365625 145.442171875 410.2223125C127.549296875 455.3298749999999 117.695703125 507.0690624999999 117.695703125 555.8990937499999V746.0890937499998L497.794171875 910.0028437499998L883.179171875 745.9014062499999V555.83653125zM404.263234375 731.5433125C393.189671875 743.5553125 374.577328125 742.83584375 362.565328125 731.8874062499999C350.741015625 720.8138437499999 349.833859375 702.2640624999999 360.907421875 690.314625L472.550203125 568.943375C475.8972968749999 565.3460312499999 479.9638593749999 563.1250625 484.280671875 561.46715625C484.8124531249999 560.7476875 485.156546875 559.9969375 485.8134531249999 559.3400312499999H353.149671875C336.883421875 559.3400312499999 323.7140156249999 546.1393437499999 323.7140156249999 529.9043749999998C323.7140156249999 513.76325 336.9147031249999 500.4687187499999 353.149671875 500.4687187499999H470.9861406249999V441.59740625H353.149671875C336.883421875 441.59740625 323.7140156249999 428.3967187499999 323.7140156249999 412.16175C323.7140156249999 396.0206249999999 336.9147031249999 382.72609375 353.149671875 382.72609375H470.9861406249999V294.38784375C470.9861406249999 278.2467187500002 484.1868281249999 264.9521875000001 500.4217968749999 264.9521875000001S529.857453125 278.1528750000001 529.857453125 294.38784375V382.72609375H647.5687968750001C663.8350468750001 382.72609375 677.004453125 395.98934375 677.004453125 412.16175C677.004453125 428.4279999999999 663.803765625 441.59740625 647.5687968750001 441.59740625H529.8574531250001V500.4687187499999H647.5687968750001C663.8350468750001 500.4687187499999 677.004453125 513.73196875 677.004453125 529.904375C677.004453125 546.170625 663.803765625 559.34003125 647.5687968750001 559.34003125H526.729328125C527.1359843750001 559.7466875 527.6677656250001 559.934375 528.0744218750001 560.34103125L639.717203125 685.93525C650.790765625 697.8846875 649.977453125 716.49703125 638.059296875 727.50803125C626.1098593749999 738.5190312500001 607.434953125 739.2385 596.423953125 727.2265L503.925296875 621.83996875L404.231953125 731.5433125z" />
    <glyph glyph-name="invoice"
      unicode="&#xE62D;"
      horiz-adv-x="1001" d="M418.8559374999999 750.75C424.3614374999999 750.75 429.8669374999999 752.126375 434.8719375 755.129375L499.1861874999998 793.54275L568.6305624999998 755.629875C583.8332499999998 747.3090625 602.8522499999998 752.877125 611.0479374999999 768.0798125C619.3061874999999 783.2825 613.7381249999999 802.2389375 598.5354375 810.4971875L513.4504374999999 856.9185625C503.75325 862.2989375 491.8038125 861.986125 482.4819999999999 856.4180624999999L402.9025000000001 808.933125C388.012625 800.04925 383.13275 780.8425625 392.0166249999999 766.0152499999999C397.8349375 756.1929375 408.2203125 750.75 418.8559375 750.75zM861.8609999999998 594.9068125L782.7819999999998 647.3341875000001V686.4983125000001C782.7819999999998 699.323625 774.9616874999998 710.8351250000001 762.9496874999998 715.5273125000001C751.0628124999998 720.3446250000001 737.4241874999998 717.2165 728.6654374999998 707.8946875000001L701.4507499999997 678.8656875L674.2360624999998 707.8946875000001C668.3551874999997 714.1509375 660.0969374999996 717.7795625000001 651.4007499999997 717.7795625000001C642.7671249999997 717.7795625000001 634.5088749999998 714.1509375 628.6279999999997 707.8946875000001L601.2881874999997 678.8656875L574.1360624999998 707.8946875000001C562.2491874999998 720.46975 540.2897499999997 720.46975 528.4028749999998 707.8946875000001L501.2507499999998 678.8656875L474.0360625 707.8946875000001C462.2117499999999 720.46975 440.1897499999998 720.46975 428.3654374999999 707.8946875000001L401.15075 678.8656875L373.8734999999999 707.8946875000001C361.9866249999999 720.6574375 339.964625 720.46975 328.202875 707.8946875000001L301.0507499999999 678.8656875L273.8360625000001 707.8946875000001C265.0147500000001 717.2165 251.4386875 720.3446250000001 239.48925 715.5273125000001C227.5398125 710.8351250000001 219.7195 699.323625 219.7195 686.4983125000001V650.2120625L138.7010625 594.594C130.1925625 588.7756875 125.125 579.1410625000001 125.125 568.81825V156.40625C125.125 139.139 139.139 125.125 156.40625 125.125H844.59375C861.861 125.125 875.875 139.139 875.875 156.40625V568.81825C875.875 579.32875 870.6197500000001 589.0885 861.861 594.9068124999999V594.9068124999999zM813.3124999999998 551.9889375V550.1120625000001L782.7819999999998 529.403875V572.2591875L813.3124999999998 551.9889375zM323.8860624999998 611.6735625L351.0381874999998 640.7025625000001L378.3779999999998 611.6735625C390.0771874999999 598.9108125 412.1617499999998 599.1610625000001 423.9860624999998 611.6735625L451.2007499999999 640.7025625000001L478.4154374999997 611.6735625C490.2397499999998 599.0985000000001 512.1991874999998 599.0985000000001 524.0860624999997 611.6735625L551.3007499999998 640.7025625000001L578.4528749999997 611.6735625C584.3963124999997 605.4173125 592.6545624999997 601.7886874999999 601.2881874999997 601.7886874999999S618.2426249999997 605.4173125 624.1234999999997 611.6735625L651.4007499999997 640.7025625000001L678.6154374999998 611.6735625C689.1884999999997 600.474875 707.9572499999997 598.7856875 720.2194999999998 608.0449375000001V487.0490625L617.6795624999999 417.66725L519.3938749999999 506.25575C507.2567499999998 515.139625 490.6151249999999 514.0760625 479.604125 503.9409375L384.3214374999999 417.291875L282.282 486.3608750000001V608.0449375000001C294.5442499999999 598.84825 313.3129999999999 600.5374375000001 323.8860624999999 611.6735625000001V611.6735625000001zM219.7194999999998 574.32375V528.7156875000001L187.6874999999998 550.3623124999999V552.30175L219.7194999999998 574.32375zM187.6874999999998 187.6875V474.849375L336.6488124999999 373.998625L260.1974374999999 304.4916874999999C247.5598124999999 292.667375 246.8090624999999 272.8350625 258.5708124999999 260.2599999999999C270.2699999999999 247.4972499999999 290.2274375 246.9341874999999 302.7399374999999 258.6333749999999L500.4999999999998 437.9374999999999L701.4507499999997 258.3205624999998C707.5193124999997 254.0037499999999 714.5888749999998 252.0017499999998 721.5333124999997 252.3771249999999C730.6048749999998 252.8150624999999 739.3010624999998 257.1944374999998 745.1819374999998 265.0773124999999C755.3170624999998 279.0287499999999 752.3140624999997 298.6108124999997 738.4251874999998 308.8084999999998L665.6024374999997 374.4991249999998L762.5743124999998 440.1271874999998C767.1413749999998 441.8789374999998 771.0202499999998 444.5691249999998 774.3360624999998 448.1351874999998L813.3124999999998 474.5365624999998V187.6874999999998H187.6874999999998z" />
    <glyph glyph-name="label"
      unicode="&#xE62E;"
      horiz-adv-x="1001" d="M942.1286875 500.5C942.1286875 588.6505625 968.4674999999997 662.41175 1001 662.41175V721.2830624999999H0V662.41175C32.50121875 662.41175 58.8713125 590.6525624999999 58.8713125 502.4707187499999S32.50121875 338.55696875 0 338.55696875V279.68565625H1001V338.55696875C968.4675 338.55696875 942.1286875 412.2555937500001 942.1286875 500.4687187500001z" />
    <glyph glyph-name="label2"
      unicode="&#xE62F;"
      horiz-adv-x="1001" d="M1001 593.81196875V627.752125H0V593.81196875C18.7061875 593.81196875 33.94015625 552.45815625 33.94015625 501.6261250000001C33.94015625 450.79409375 18.73746875 409.56540625 0 409.56540625V373.21659375H1001V407.1567500000001C982.23125 407.1567500000001 967.05984375 449.6366875000001 967.05984375 500.4687187500001C967.05984375 551.2694687500001 982.23125 593.81196875 1001 593.81196875z" />
    <glyph glyph-name="label3"
      unicode="&#xE630;"
      horiz-adv-x="1001" d="M1001 616.02165625V660.2220625H0V617.617C23.49221875 617.617 42.6050625 565.690125 42.6050625 501.90765625C42.6050625 438.0939062499999 23.49221875 383.3517187499999 0 383.3517187499999V340.74665625H1001V384.9470625C977.44521875 384.9470625 958.3949375 436.6236875000001 958.3949375 500.4687187500001C958.3949375 564.2199062500001 977.44521875 615.9903750000001 1001 615.9903750000001z" />
    <glyph glyph-name="micro-blog"
      unicode="&#xE631;"
      horiz-adv-x="1001" d="M419.1061875 550.9879375C285.81678125 544.88809375 178.052875 473.4417187500001 178.052875 384.35271875C178.052875 295.45140625 285.81678125 228.6346562499999 419.1061875 234.859625C552.52071875 240.9281874999999 660.44103125 324.41784375 660.44103125 413.3504375C660.44103125 502.126625 552.4894375 557.15034375 419.1061875 550.9879375V550.9879375zM509.9156562499999 327.0141875000001C469.093625 274.3365625 388.3567187500001 248.623375 309.9033437499999 291.13459375C272.5848125 311.3422812500001 273.9611875 351.1320312500002 273.9611875 351.1320312500002S258.4456875 476.601125 392.517125 492.33559375C526.74496875 507.91365625 550.7064062499999 379.72309375 509.9156562499999 327.0141875000001V327.0141875000001zM356.481125 393.8309375C331.456125 391.2345937500001 313.5319687500001 369.3690000000001 313.5319687500001 348.5982499999999C313.5319687500001 327.60853125 333.6770937500001 313.2191562500001 358.7020937500001 316.15959375C383.6332500000001 319.0061875 403.8722187500001 338.24415625 403.9035000000001 359.10875C403.9035000000001 380.0359062500001 385.1973125000001 396.64625 356.4498437500002 393.8309375zM420.01334375 411.12946875C411.411 404.9045 409.62796875 393.017625 414.3514375000001 385.6039687500001C418.8559375000001 378.0026250000001 429.27259375 377.12675 437.7498125 383.3830000000001C446.03934375 389.98334375 449.23003125 401.36971875 444.72553125 408.9710625C440.28359375 416.3847187500001 429.9920625000001 418.5431250000001 420.0446250000001 411.12946875zM0 500.5C0 224.098875 224.098875 0 500.5 0S1001 224.098875 1001 500.5C1001 776.901125 776.901125 1001 500.5 1001S0 776.901125 0 500.5zM779.5913125000001 320.97690625C724.63015625 204.2665625000001 543.3865937500001 147.42853125 409.12746875 157.87646875C281.53125 167.9803125 117.46109375 210.36640625 100.475375 364.8019375C100.475375 364.8019375 91.5289375 434.7155312499999 159.3466875 525.2434687499999C159.3466875 525.2434687499999 256.881625 661.3794687499999 370.46384375 700.29334375C484.20246875 738.9882499999999 497.46571875 673.547875 497.46571875 634.85296875C491.4284375 602.0389375 480.1046249999999 582.7384062499999 522.8035312499999 595.93909375C522.8035312499999 595.93909375 634.5714374999999 647.86596875 680.5548749999999 601.8512499999999C717.68571875 564.7516874999999 686.6547187499999 513.6068437499999 686.6547187499999 513.6068437499999S671.2956249999999 496.65240625 702.9522499999999 490.4587187499999C734.7965624999999 484.1399062499999 834.6150312499999 437.8749374999999 779.62259375 320.97690625V320.97690625zM793.2925 591.12178125C793.2925 590.55871875 792.9796875 590.18334375 792.9484062500001 589.55771875C792.8545625 588.9320937499999 792.9171249999999 588.18134375 792.8232812499999 587.49315625H792.5104687499999C790.6335937499999 574.0109375 779.5913125 563.53171875 765.5773125 563.53171875C750.3433437499999 563.53171875 737.9559687499999 575.91909375 737.9559687499999 591.1217812499999C737.9559687499999 592.3104687499999 738.4877499999999 593.2801875 738.6128749999999 594.4063125L737.9559687499999 594.468875C738.3939062499999 597.7846875 738.6128749999999 601.06921875 738.6128749999999 604.44759375C738.6128749999999 647.2716250000001 703.7655624999999 682.056375 661.00409375 682.056375C645.770125 682.056375 633.38275 694.47503125 633.38275 709.7090000000001S645.770125 737.3303437500001 661.00409375 737.3303437500001C734.2647812499999 737.3303437500001 793.8555625 677.7395625000001 793.8555625 604.4163125C793.8555625 600.1933437500002 793.4801874999999 596.0642187500001 793.0735312500001 591.9663750000001C793.0735312500001 591.68484375 793.1986562500001 591.4658750000001 793.2299375 591.0905V591.0905zM896.9585625 560.8728125C896.92728125 560.81025 896.92728125 560.685125 896.92728125 560.685125L896.896 560.6538437500001C893.2360937499999 546.29575 880.3794999999999 535.7226875 864.8952812499999 535.7226875C846.5331874999999 535.7226875 831.73715625 550.55 831.73715625 568.8495312499999C831.73715625 570.16334375 831.956125 571.3833124999999 832.11253125 572.5719999999999L831.7058749999999 572.66584375C833.6453124999999 583.0825 834.6150312499999 593.7806875 834.6150312499999 604.35375C834.6150312499999 700.0743749999999 756.7559999999999 777.9646875 661.0353749999999 777.9646875C642.7045625 777.9646875 627.87725 792.8545624999999 627.87725 811.1540937499999C627.87725 829.4536249999999 642.7358437500001 844.3122187499999 661.0353749999999 844.3122187499999C793.2925 844.3122187499999 900.93128125 736.6734374999999 900.93128125 604.3537499999999C900.93128125 592.4043124999998 899.8364375 580.3297499999999 898.022125 568.4741562499999C897.99084375 565.8152499999999 897.5841875 563.2814687499999 896.9585625 560.8415312499999V560.8415312499999z" />
    <glyph glyph-name="micro-blog2"
      unicode="&#xE632;"
      horiz-adv-x="1001" d="M731.82484375 507.1941875C695.6324375 514.514 713.2125000000001 534.8780937500001 713.2125000000001 534.8780937500001S748.6854375 595.9078125000001 706.2055 640.264625C653.55915625 695.22578125 525.650125 633.28890625 525.650125 633.28890625C476.82009375 617.4293124999999 489.77053125 640.514875 496.6836875 679.7415624999999C496.6836875 725.97525 481.5122812500001 804.20965625 351.3822812500001 757.97596875C221.4086875 711.5233125 109.76590625 548.7669687499999 109.76590625 548.7669687499999C32.157125 440.59640625 42.44865625 356.981625 42.44865625 356.981625C61.81175 172.45353125 249.59309375 121.8091874999999 395.6452500000001 109.7659062500001C549.29875 97.19084375 756.6934375000001 165.0711562500001 819.5374687500001 304.5855312500001C882.41278125 444.2875937500001 768.142375 499.5928437500001 731.7935625000001 507.1941875000001V507.1941875000001zM407.0629062500001 161.8491875C254.50425 154.3729687499999 131.1935625 234.2652812500001 131.1935625 340.55896875C131.1935625 446.97778125 254.47296875 532.3443125 407.0629062500001 539.664125C559.6528437500001 547.01521875 683.2137812499999 481.32459375 683.2137812499999 375.1560312500002C683.2137812499999 268.8310625000001 559.684125 169.0438750000001 407.0629062500001 161.8491875000001V161.8491875000001zM376.59496875 469.56284375C223.19171875 450.7940937499999 240.89690625 300.76921875 240.89690625 300.76921875S239.364125 253.2217187499999 282.03175 229.0413125C371.8089375 178.2718437499999 464.2450312500001 208.9900312499999 510.9479375 271.9591875C557.6508437499999 334.959625 530.27975 488.1751875 376.59496875 469.56284375V469.56284375zM337.9000625000001 258.9461875C309.27771875 255.4114062500001 286.1608750000001 272.67865625 286.1608750000001 297.70365625C286.1608750000001 322.6348125 306.6813750000001 348.6920937499999 335.3350000000001 351.8515C368.2428750000001 355.10475 389.67053125 335.3350000000001 389.67053125 310.2787187500001C389.67053125 285.37884375 366.45984375 262.3245625 337.8687812500001 258.9461875V258.9461875zM428.3341562500001 339.3702812500001C418.6369687500001 331.8315 406.7188125 332.8637812500001 401.5886875000001 341.93534375C396.2395937500001 350.81921875 398.2415937500001 364.989625 408.032625 372.46584375C419.3877187500001 381.28715625 431.21203125 378.78465625 436.34215625 369.8695C441.5035625 360.82921875 437.8436562500001 347.1905937500001 428.3028750000001 339.3702812500001V339.3702812500001zM806.55575 572.1340625C818.91184375 572.1340625 829.4223437500001 581.7061249999999 831.17409375 594.1560625C831.4243437499999 595.0944999999999 831.5181875 595.9078125 831.5181875 596.94009375C850.2556562499999 772.86584375 693.4427499999999 742.58559375 693.4427499999999 742.58559375C679.5225937499998 742.58559375 668.4177499999998 730.855125 668.4177499999998 716.1529375C668.4177499999998 701.7322812499999 679.5225937499998 689.97053125 693.4427499999999 689.97053125C806.0865312499999 715.9339687500001 781.2492187499998 598.31646875 781.2492187499998 598.31646875C781.2492187499998 583.80196875 792.5730312499998 572.1340625 806.5557499999999 572.1340625V572.1340625zM788.2875 879.22209375C734.07709375 892.48534375 678.302625 881.0676875 662.69328125 877.9395625C661.50459375 877.8144375 660.3784687499999 876.62575 659.2836249999999 876.3755C658.7205624999999 876.28165625 658.40775 875.6873125 658.40775 875.6873125C642.9548125 871.12025 631.6935625 856.2303750000001 631.6935625 838.6503125C631.6935625 817.691875 647.99109375 800.424625 668.292625 800.424625C668.292625 800.424625 687.9998125 803.2086562500001 701.3881875000001 808.682875C714.68271875 814.2822187500001 826.91984375 812.812 882.72559375 715.0268125C913.13096875 643.643 896.0826875 595.87653125 893.98684375 588.212625C893.98684375 588.212625 886.72959375 569.694125 886.72959375 551.39459375C886.72959375 530.31103125 902.99584375 517.0790625 923.14096875 517.0790625C940.0015625000002 517.0790625 954.1719687500002 519.4564375 958.30109375 549.2361875H958.55134375C1018.4236562500002 757.631875 885.2906562500001 855.5734687500001 788.2875 879.1908125V879.1908125z" />
    <glyph glyph-name="minus"
      unicode="&#xE633;"
      horiz-adv-x="1001" d="M834.17709375 500.5C834.17709375 454.454 796.8898437500001 417.07290625 750.75 417.07290625H250.25C204.11015625 417.07290625 166.82290625 454.454 166.82290625 500.5S204.11015625 583.92709375 250.25 583.92709375H750.75C796.8898437500001 583.92709375 834.17709375 546.546 834.17709375 500.5z" />
    <glyph glyph-name="mirror"
      unicode="&#xE634;"
      horiz-adv-x="1001" d="M500.5 100.1C265.85934375 100.1 75.075 290.94690625 75.075 525.525S265.8593437500001 950.95 500.5 950.95C735.1406562500001 950.95 925.925 760.10309375 925.925 525.525S735.14065625 100.1 500.4999999999999 100.1V100.1zM500.5 900.9C293.4806875000001 900.9 125.125 732.5443124999999 125.125 525.5250000000001S293.4806875000001 150.15 500.5 150.15C707.5193125 150.15 875.875 318.5056875 875.875 525.5250000000001S707.5193125 900.9 500.5 900.9V900.9zM725.725 0H275.275C261.4486875 0 250.25 11.1986875 250.25 25.025S261.4486875 50.0500000000001 275.275 50.0500000000001H725.725C739.5513125 50.0500000000001 750.75 38.8513125000001 750.75 25.025S739.5513125 0 725.725 0zM475.475 25.025V125.125C475.475 138.9513125 486.6736875 150.15 500.5 150.15S525.5250000000001 138.9513125 525.5250000000001 125.125V25.025C525.5250000000001 11.16740625 514.3575937500001 0 500.5 0C486.6736875 0 475.475 11.1986875 475.475 25.025zM450.45 352.8525000000001C444.03734375 352.8525000000001 437.6246875000001 355.2924375 432.7448124999999 360.1723125000001C422.9850625000001 369.9320625000002 422.9850625000001 385.7916562500001 432.7448124999999 395.5514062500002L680.42975 643.2989062500001C690.1895000000001 653.05865625 706.04909375 653.05865625 715.80884375 643.2989062500001S725.5685937500001 617.6795625000001 715.80884375 607.9198125L468.12390625 360.1723125000001C463.2753125 355.32371875 456.86265625 352.8525000000001 450.45 352.8525000000001zM598.0349375 300.3000000000002C591.62228125 300.3000000000002 585.209625 302.7399375 580.32975 307.6198125000001C570.57 317.3795625000002 570.57 333.2391562500001 580.32975 342.9989062500001L682.9948125000001 445.6639687500001C692.7545625 455.4237187500001 708.61415625 455.4237187500001 718.37390625 445.6639687500001S728.1336562500001 420.0446250000001 718.37390625 410.2848750000001L615.70884375 307.6198125000001C610.86025 302.7712187500001 604.44759375 300.3000000000002 598.0349375 300.3000000000002z" />
    <glyph glyph-name="more"
      unicode="&#xE635;"
      horiz-adv-x="1001" d="M917.588546875 834.17709375H83.411453125C37.2716093749999 834.17709375 -0.0156406250001 796.796 -0.0156406250001 750.75V250.25C-0.0156406250001 204.204 37.2716093749999 166.82290625 83.411453125 166.82290625H917.588546875C963.728390625 166.82290625 1001.015640625 204.204 1001.015640625 250.25V750.75C1001.015640625 796.796 963.728390625 834.17709375 917.588546875 834.17709375V834.17709375zM250.2656406250001 417.07290625C204.125796875 417.07290625 166.838546875 454.454 166.838546875 500.5S204.125796875 583.92709375 250.2656406250001 583.92709375C296.4054843750001 583.92709375 333.6927343750001 546.546 333.6927343750001 500.5S296.4054843750001 417.07290625 250.2656406250001 417.07290625V417.07290625zM500.5156406250001 417.07290625C454.375796875 417.07290625 417.0885468750001 454.454 417.0885468750001 500.5S454.375796875 583.92709375 500.5156406250001 583.92709375C546.6554843750001 583.92709375 583.9427343750001 546.546 583.9427343750001 500.5S546.6554843750001 417.07290625 500.5156406250001 417.07290625V417.07290625zM750.7656406250001 417.07290625C704.625796875 417.07290625 667.338546875 454.454 667.338546875 500.5S704.625796875 583.92709375 750.7656406250001 583.92709375C796.9054843750001 583.92709375 834.1927343750001 546.546 834.1927343750001 500.5S796.9054843750001 417.07290625 750.7656406250001 417.07290625V417.07290625z" />
    <glyph glyph-name="no"
      unicode="&#xE636;"
      horiz-adv-x="1001" d="M579.1410625000001 500.5L984.76503125 906.030125C1006.4429374999997 927.70803125 1006.4429374999997 962.86815625 984.76503125 984.6711875C962.962 1006.47421875 927.83315625 1006.47421875 906.1239687500002 984.6711875L500.4999999999999 579.04721875L94.87603125 984.6711875C73.198125 1006.47421875 38.038 1006.47421875 16.23496875 984.6711875C-5.4429375 962.86815625 -5.4429375 927.7393125 16.23496875 906.030125L421.8589375 500.5L16.23496875 94.969875C-5.4429375 73.1668437500001 -5.4429375 38.038 16.23496875 16.23496875C38.038 -5.4429375 73.16684375 -5.4429375 94.87603125 16.23496875L500.4999999999999 421.8589375000002L906.1239687500002 16.2349687500001C927.8018749999998 -5.4429374999997 962.9619999999998 -5.4429374999997 984.7650312499998 16.2349687500001C1006.4429374999997 38.0380000000001 1006.4429374999997 73.1668437500002 984.7650312499998 94.9698750000001L579.1410624999999 500.5000000000002z" />
    <glyph glyph-name="paper"
      unicode="&#xE637;"
      horiz-adv-x="1001" d="M856.402421875 689.563875C856.402421875 691.065375 856.0896093749999 692.5043125 855.5578281249999 693.818125V693.818125C854.9947656249999 695.1945000000001 854.1501718749998 696.41446875 853.117890625 697.4467500000001L608.529796875 942.066125C607.4975156249999 943.09840625 606.277546875 943.943 604.9011718749999 944.5060625C603.7124843749999 945.0065625 602.398671875 945.19425 601.084859375 945.2568125C600.928453125 945.2568125 600.7720468749999 945.35065625 600.615640625 945.35065625C600.615640625 945.35065625 600.615640625 945.35065625 600.615640625 945.35065625H190.205640625C165.055515625 945.35065625 144.5975781250001 925.76859375 144.5975781250001 901.68203125V99.2241250000001C144.5975781250001 75.1375625000001 165.055515625 55.5554999999999 190.205640625 55.5554999999999H810.8256406249999C835.9757656249999 55.5554999999999 856.402421875 75.1375625000001 856.402421875 99.2241250000001V689.47003125C856.402421875 689.5013125 856.402421875 689.5013125 856.402421875 689.53259375V689.53259375zM611.720484375 907.4065L818.489546875 700.7H635.118859375C622.230984375 700.7 611.751765625 710.3033437500001 611.751765625 722.12765625V907.43778125zM810.8256406249999 77.85903125H190.205640625C177.3177656249999 77.85903125 166.8072656249999 87.462375 166.8072656249999 99.2866875V901.74459375C166.8072656249999 913.537625 177.3177656249999 923.17225 190.205640625 923.17225H589.4795156249999V722.1589375C589.4795156249999 698.072375 609.9374531249999 678.4903124999998 635.0875781249998 678.4903124999998H834.1927343749999V99.3179687499999C834.1927343749999 87.49365625 823.682234375 77.8903124999999 810.8256406249999 77.8903124999999V77.8903124999999zM300.315640625 645.0819375H478.274671875C484.4370781249999 645.0819375 489.410796875 650.0556562500001 489.410796875 656.2180625S484.4370781249999 667.3541875 478.274671875 667.3541875H300.315640625C294.1532343750001 667.3541875 289.179515625 662.38046875 289.179515625 656.2180625S294.1532343750001 645.0819375 300.315640625 645.0819375zM300.315640625 533.8770937500001H478.274671875C484.4370781249999 533.8770937500001 489.410796875 538.8508125000001 489.410796875 545.0132187500001S484.4370781249999 556.1493437500001 478.274671875 556.1493437500001H300.315640625C294.1532343750001 556.1493437500001 289.179515625 551.175625 289.179515625 545.0132187500001S294.1532343750001 533.8770937500001 300.315640625 533.8770937500001zM722.9566093749999 444.8819375000001H300.315640625C294.153234375 444.8819375000001 289.179515625 439.9082187500001 289.179515625 433.7458125S294.153234375 422.6096875 300.315640625 422.6096875H722.9566093749999C729.1190156249999 422.6096875 734.092734375 427.58340625 734.092734375 433.7458125S729.119015625 444.8819375000001 722.9566093749999 444.8819375000001zM722.9566093749999 333.6770937500001H300.315640625C294.153234375 333.6770937500001 289.179515625 328.7033750000001 289.179515625 322.5409687500001S294.153234375 311.40484375 300.315640625 311.40484375H722.9566093749999C729.1190156249999 311.40484375 734.092734375 316.3785625 734.092734375 322.5409687500001S729.119015625 333.6770937500001 722.9566093749999 333.6770937500001z" />
    </font>
</defs>
</svg>
